<svg width="70" height="71" viewBox="0 0 70 71" fill="none" xmlns="http://www.w3.org/2000/svg">
<path d="M28.1181 52.2757C28.5018 50.6306 28.8925 48.7002 29.4181 46.8068C29.6553 45.953 29.4367 45.4634 28.7832 44.9367C27.4251 43.8485 26.1437 42.6698 24.8088 41.5538C24.0902 40.9528 23.7088 40.2382 23.9763 39.317C24.2483 38.3773 24.9832 38.0154 25.9135 37.9434C27.7274 37.8042 29.5367 37.6232 31.353 37.5119C32.1042 37.4655 32.5135 37.1754 32.7879 36.4538C33.4321 34.76 34.1856 33.108 34.8763 31.4305C35.2344 30.558 35.8344 30.0012 36.7949 30.0221C37.6995 30.0406 38.267 30.5905 38.6088 31.4165C39.3297 33.1637 40.0925 34.8946 40.7949 36.6487C41.0111 37.187 41.3111 37.4283 41.8925 37.4701C43.7832 37.6047 45.6716 37.788 47.5623 37.9411C48.4879 38.0154 49.2344 38.3657 49.5111 39.3054C49.7809 40.2242 49.4111 40.9458 48.6949 41.5491C47.3321 42.693 46.0228 43.9019 44.6297 45.0063C43.9763 45.5237 43.8646 46.0249 44.0763 46.7952C44.5344 48.4681 44.8949 50.1689 45.2925 51.858C45.5065 52.7745 45.4949 53.6516 44.6297 54.2549C43.7832 54.8442 42.9646 54.6331 42.1437 54.1226C40.6018 53.162 39.0251 52.2571 37.4902 51.2826C36.96 50.9462 36.56 50.9392 36.0251 51.278C34.3925 52.3128 32.7274 53.2943 31.067 54.285C30.3856 54.6934 29.6739 54.7444 28.9786 54.3222C28.3228 53.9231 28.0437 53.3175 28.1251 52.278L28.1181 52.2757Z" fill="#F48014"/>
<path d="M32.0929 18.5368C32.0929 15.2675 32.0999 12.0702 32.0859 8.87287C32.0859 8.34849 32.4022 8.35081 32.772 8.35081C35.4045 8.35313 38.0348 8.36474 40.6673 8.34385C41.2069 8.33921 41.4138 8.49003 41.4092 9.05849C41.3859 11.9936 41.3929 14.9288 41.4045 17.8639C41.4045 18.3395 41.3255 18.5368 40.7534 18.4393C37.9069 17.9544 35.0534 18.0008 32.0929 18.5414V18.5368Z" fill="#F48014"/>
<path d="M24.1896 21.4177C24.1896 17.4454 24.1826 13.6588 24.1942 9.87211C24.1966 8.89296 24.7431 8.3709 25.7198 8.35698C27.1524 8.33841 28.5873 8.37554 30.0198 8.33841C30.6175 8.32449 30.7152 8.589 30.7128 9.10178C30.6966 12.1158 30.6989 15.1321 30.7128 18.1462C30.7128 18.5824 30.6338 18.8794 30.15 18.9977C28.1152 19.4942 26.2245 20.3643 24.1919 21.4177H24.1896Z" fill="#F48014"/>
<path d="M49.2944 21.3918C47.2688 20.3732 45.3502 19.4776 43.2805 18.9718C42.8502 18.8674 42.7805 18.582 42.7805 18.1945C42.7898 15.141 42.7991 12.0876 42.7735 9.03412C42.7689 8.44245 43.0177 8.33108 43.534 8.34036C44.927 8.36588 46.3223 8.34732 47.7177 8.34964C48.6293 8.34964 49.2665 8.78121 49.2758 9.70235C49.3154 13.5517 49.2921 17.401 49.2921 21.3918H49.2944Z" fill="#F48014"/>
<path d="M38.1344 23.008C38.1344 22.5834 38.1344 22.1588 38.1344 21.7319C38.1344 19.3861 38.139 19.3583 40.4878 19.7805C41.6274 19.9847 42.739 20.3281 43.8692 20.5857C44.3669 20.6994 44.4855 20.9082 44.2739 21.4001C43.5274 23.138 42.8018 24.8851 42.1018 26.6416C41.8878 27.1822 41.5158 27.3028 41.1158 27.0221C40.2065 26.3817 38.539 27.4049 38.1692 25.7807C37.9692 24.899 38.1344 23.9338 38.1344 23.0057V23.008Z" fill="#F48014"/>
<path d="M16.5379 41.7662C15.6076 41.7662 14.6774 41.7384 13.7495 41.7755C13.1518 41.7987 13.0355 41.5504 13.103 41.0144C13.3123 39.3647 13.5983 37.7359 14.0821 36.1372C14.2611 35.5433 14.4867 35.4296 15.0658 35.6848C16.7286 36.4157 18.4123 37.0978 20.1007 37.773C20.5681 37.9586 20.9262 38.2255 20.6076 38.6965C19.9634 39.6432 20.996 41.3485 19.3193 41.7337C18.4355 41.9356 17.4681 41.7685 16.5379 41.7685V41.7662Z" fill="#F48014"/>
<path d="M56.9483 41.7665C56.832 41.7665 56.7157 41.7735 56.5994 41.7665C55.5692 41.6969 54.2506 42.1981 53.5831 41.553C52.9831 40.973 53.0994 39.6759 52.8506 38.7061C52.732 38.2397 52.832 37.9938 53.2831 37.8128C55.0413 37.1074 56.7948 36.3905 58.5366 35.6457C59.018 35.4415 59.2064 35.5366 59.3669 36.0331C59.9017 37.6968 60.1831 39.4045 60.3971 41.1308C60.4669 41.6969 60.1924 41.7758 59.7366 41.7688C58.8064 41.7526 57.8785 41.7642 56.9483 41.7642V41.7665Z" fill="#F48014"/>
<path d="M60.3648 45.2824C60.2206 46.9135 59.8788 48.5331 59.4253 50.1364C59.2323 50.8185 58.9462 50.858 58.3532 50.5981C56.7253 49.8835 55.0811 49.2083 53.4276 48.5563C52.9067 48.3498 52.6974 48.1247 52.8741 47.5284C53.1532 46.5748 53.0276 45.171 53.6346 44.7301C54.3276 44.2267 55.6392 44.5608 56.6811 44.5492C57.6881 44.5376 58.695 44.5631 59.702 44.5399C60.2299 44.5283 60.5462 44.6489 60.3648 45.2824Z" fill="#F48014"/>
<path d="M35.352 63.2543C35.352 64.2195 35.3334 65.187 35.359 66.1523C35.373 66.6766 35.1637 66.8135 34.6637 66.7509C32.9706 66.5444 31.2985 66.2567 29.666 65.7485C29.1288 65.5815 29.0032 65.3889 29.2381 64.8483C29.9799 63.1499 30.6846 61.4375 31.3683 59.7159C31.5683 59.2147 31.9009 58.9595 32.3241 59.2704C33.2427 59.9479 34.9962 58.811 35.3264 60.5906C35.4846 61.4491 35.3544 62.3633 35.3544 63.2519L35.352 63.2543Z" fill="#F48014"/>
<path d="M35.3525 22.9745C35.3525 23.8632 35.299 24.7565 35.3688 25.6405C35.4269 26.3691 35.1106 26.608 34.4618 26.6359C34.1548 26.6498 33.8455 26.6985 33.5409 26.7589C32.254 27.0172 31.3517 26.5237 30.8339 25.2785C30.3432 24.1022 29.885 22.9119 29.3455 21.761C29.0083 21.0441 29.0781 20.6821 29.9129 20.4663C31.4525 20.0695 33.0036 19.7702 34.5804 19.5637C35.2339 19.4779 35.385 19.7192 35.3618 20.3085C35.3269 21.1949 35.3525 22.0858 35.3525 22.9745Z" fill="#F48014"/>
<path d="M28.9749 28.1044C28.9982 28.3388 28.8307 28.4316 28.6703 28.5383C27.8703 29.072 27.0563 29.5894 26.2772 30.1509C25.9121 30.4154 25.7331 30.2066 25.5121 29.9839C24.1772 28.6497 22.8517 27.304 21.4959 25.9907C21.0866 25.5939 21.1098 25.3433 21.5447 24.9907C22.8633 23.9164 24.261 22.9674 25.7703 22.1785C26.0935 22.0091 26.3935 21.8467 26.5982 22.3479C27.354 24.1971 28.1261 26.0417 28.8912 27.8887C28.9214 27.9606 28.947 28.0325 28.9749 28.1044Z" fill="#F48014"/>
<path d="M16.5537 44.547C16.67 44.547 16.7862 44.5401 16.9025 44.547C17.9304 44.6236 19.2467 44.1085 19.9118 44.7698C20.5095 45.3638 20.3932 46.6515 20.6397 47.6214C20.7607 48.0947 20.6374 48.3267 20.1909 48.5054C18.4328 49.2108 16.6816 49.9324 14.9397 50.6772C14.4421 50.8906 14.2723 50.7421 14.1188 50.2665C13.5793 48.6028 13.3025 46.8928 13.0886 45.1665C13.0165 44.5818 13.3258 44.5377 13.7653 44.5424C14.6955 44.554 15.6258 44.547 16.5537 44.5447V44.547Z" fill="#F48014"/>
<path d="M18.8611 58.9455C18.7356 58.7018 18.6611 58.4698 18.517 58.2958C17.4635 57.0127 16.5518 55.6391 15.7495 54.1843C15.4356 53.6181 15.5797 53.3838 16.1286 53.1657C17.8077 52.4951 19.4821 51.8037 21.1449 51.0914C21.6518 50.8756 22.0077 50.857 22.2332 51.4441C22.3286 51.6923 22.5216 51.8988 22.6402 52.1401C22.9728 52.813 23.9309 53.3374 23.7449 54.0219C23.5681 54.6715 22.7518 55.1495 22.21 55.6948C21.3402 56.5695 20.4658 57.4396 19.5914 58.3074C19.4332 58.4652 19.2542 58.6044 18.8658 58.9455H18.8611Z" fill="#F48014"/>
<path d="M38.133 63.2866C38.133 63.1705 38.1237 63.0545 38.133 62.9385C38.2191 61.9153 37.6865 60.6043 38.3679 59.9454C38.9772 59.3537 40.2586 59.4697 41.2307 59.2238C41.7167 59.1008 41.9307 59.2609 42.1051 59.6925C42.8144 61.4466 43.5307 63.1961 44.2819 64.9339C44.5051 65.4537 44.3051 65.5929 43.8516 65.7391C42.1842 66.2774 40.4702 66.5535 38.74 66.76C38.2633 66.818 38.126 66.6231 38.133 66.1869C38.147 65.2217 38.1377 64.2541 38.1377 63.2889L38.133 63.2866Z" fill="#F48014"/>
<path d="M47.5345 30.3557C47.1508 30.0726 46.7601 29.8221 46.4112 29.5227C45.8112 29.01 44.6973 28.8777 44.588 28.112C44.495 27.4531 45.0833 26.6967 45.374 25.9843C45.8415 24.8474 46.3345 23.7175 46.7787 22.5712C46.9996 22.0005 47.2578 21.9146 47.8089 22.2139C49.2694 23.0121 50.6485 23.9216 51.9275 24.982C52.2415 25.2419 52.5298 25.46 52.0903 25.8892C50.6833 27.2605 49.3019 28.6596 47.9089 30.0471C47.8019 30.1539 47.6764 30.2397 47.5345 30.3534V30.3557Z" fill="#F48014"/>
<path d="M23.922 32.3809C23.6638 32.7313 23.4383 33.0909 23.1615 33.4065C22.6104 34.033 22.4545 35.2209 21.6825 35.323C20.9545 35.4205 20.1243 34.7731 19.3406 34.4529C18.2708 34.0167 17.2104 33.562 16.1313 33.1443C15.5825 32.9332 15.4336 32.6942 15.7499 32.1257C16.5545 30.6709 17.4755 29.3066 18.515 28.0096C18.9173 27.5061 19.1848 27.5664 19.6011 27.9933C20.8894 29.3205 22.2127 30.6129 23.5197 31.9215C23.6545 32.0561 23.7732 32.2092 23.922 32.3786V32.3809Z" fill="#F48014"/>
<path d="M57.9194 32.5416C58.0403 32.9383 57.7008 32.9917 57.4775 33.0868C55.7008 33.8316 53.9147 34.5486 52.1426 35.3004C51.7171 35.4813 51.5171 35.3537 51.331 34.9802C51.1613 34.6368 50.938 34.3189 50.7287 33.9964C49.9814 32.8594 50.0814 31.8184 51.0287 30.8733C52.0101 29.8941 52.9938 28.9127 53.9752 27.9335C54.2264 27.6829 54.4519 27.4138 54.8124 27.8361C55.9961 29.2189 56.9961 30.7202 57.838 32.3304C57.8729 32.3977 57.8938 32.4743 57.9217 32.5439L57.9194 32.5416Z" fill="#F48014"/>
<path d="M57.9613 53.6835C57.8683 53.8738 57.7892 54.0478 57.6985 54.2172C56.945 55.6558 56.0171 56.9737 55.0125 58.2475C54.5846 58.7904 54.3055 58.751 53.8497 58.28C52.5939 56.976 51.3055 55.6998 50.0009 54.4423C49.6264 54.0803 49.552 53.8158 49.9241 53.4028C50.2822 53.0037 50.6543 52.5721 50.8497 52.0849C51.3148 50.9387 51.9357 50.7902 53.0311 51.354C54.3962 52.0547 55.866 52.5513 57.2869 53.1499C57.5474 53.2589 57.8939 53.3007 57.959 53.6835H57.9613Z" fill="#F48014"/>
<path d="M26.0757 64.279C25.9455 64.214 25.7711 64.1328 25.6013 64.0423C24.2013 63.2975 22.913 62.3926 21.6595 61.4251C21.0595 60.9633 21.1153 60.671 21.6292 60.1814C22.9153 58.9633 24.1641 57.7034 25.3944 56.4272C25.7897 56.0165 26.099 55.9214 26.5223 56.3483C26.7083 56.5386 26.9478 56.6778 27.1688 56.8333C28.4013 57.6995 28.7331 58.8202 28.1641 60.1953C27.6781 61.3671 27.2083 62.5457 26.706 63.7105C26.599 63.9565 26.5874 64.3648 26.0804 64.2743L26.0757 64.279Z" fill="#F48014"/>
<path d="M47.5387 55.9648C47.7038 56.1041 47.8829 56.234 48.0387 56.3895C49.3503 57.6934 50.6503 59.0113 51.9736 60.3037C52.3526 60.6727 52.4387 60.9279 51.9712 61.3061C50.648 62.3757 49.248 63.3178 47.7503 64.1298C47.241 64.406 47.0061 64.2946 46.7991 63.7888C46.1061 62.0787 45.3898 60.378 44.6829 58.6726C44.5317 58.3106 44.3829 58.009 44.8898 57.7259C45.6596 57.2944 46.3689 56.7561 47.1038 56.2618C47.2317 56.176 47.3573 56.0901 47.5387 55.9672V55.9648Z" fill="#F48014"/>
</svg>
