<svg width="27" height="23" viewBox="0 0 27 23" fill="none" xmlns="http://www.w3.org/2000/svg">
<path d="M15.6905 5.92687C19.1328 5.92687 22.5761 5.93572 26.0185 5.91606C26.5015 5.91311 26.5783 6.04873 26.5482 6.47524C26.3488 9.33891 25.6248 12.0562 24.1083 14.5611C23.4954 15.5734 22.7662 16.504 21.8968 17.3354C21.6101 17.6096 21.2892 17.7295 20.8799 17.7295C14.2716 17.7236 7.66218 17.7246 1.05383 17.7265C0.635227 17.7265 0.247784 17.6813 0.0628915 17.2587C-0.124078 16.8312 0.13768 16.559 0.430599 16.275C2.59114 14.1789 3.76074 11.6139 4.358 8.78269C4.5242 7.99552 4.65092 7.20049 4.65923 6.39858C4.66339 5.9937 4.82024 5.91803 5.2056 5.91901C8.69986 5.9308 12.1952 5.92589 15.6894 5.92589L15.6905 5.92687Z" fill="#495E57"/>
<path d="M26.5904 13.3809C26.5904 16.0481 26.5956 18.7152 26.5852 21.3823C26.5831 21.8393 26.2923 22.0958 25.8062 22.138C25.6514 22.1518 25.4946 22.1449 25.3398 22.1449C18.8862 22.1449 12.4316 22.1449 5.97803 22.1449C4.88841 22.1449 4.72013 21.9838 4.72013 20.9421C4.72013 20.5981 4.71702 20.2541 4.72013 19.9112C4.72844 19.0985 4.62769 19.1948 5.45555 19.1928C7.3938 19.1879 9.33102 19.1918 11.2693 19.1918C14.4353 19.1918 17.6024 19.1771 20.7684 19.2007C21.697 19.2075 22.4366 18.9235 23.0816 18.2966C24.4382 16.9797 25.4759 15.4663 26.285 13.8035C26.3557 13.6581 26.4294 13.5136 26.5011 13.3691C26.5312 13.3731 26.5613 13.377 26.5915 13.3819L26.5904 13.3809Z" fill="#495E57"/>
<path d="M15.6826 4.45775C12.2205 4.45775 8.75845 4.45087 5.29639 4.4666C4.85701 4.46856 4.66796 4.38601 4.70847 3.93101C4.7521 3.44357 4.71367 2.94926 4.7199 2.4579C4.72925 1.74443 4.97127 1.51054 5.71811 1.50563C6.72255 1.49875 7.727 1.48106 8.72936 1.51349C9.22276 1.52922 9.48036 1.44077 9.40142 0.907147C9.35052 0.560243 9.49282 0.254614 9.85741 0.100325C10.3986 -0.128651 10.9096 0.21727 10.9533 0.832459C10.9851 1.27993 11.2327 1.50366 11.696 1.50366C12.6131 1.50366 13.5314 1.49285 14.4486 1.50858C14.7695 1.51447 14.89 1.41129 14.8516 1.11352C14.835 0.984782 14.8381 0.850148 14.8547 0.72141C14.9077 0.306698 15.1611 0.0688778 15.6015 0.0403786C16.0233 0.0128622 16.3494 0.299819 16.4055 0.71748C16.4377 0.958249 16.2902 1.27469 16.4761 1.42505C16.7099 1.6157 17.0724 1.4958 17.3778 1.49875C18.243 1.50858 19.1093 1.49285 19.9746 1.50661C20.2644 1.51153 20.3578 1.42406 20.362 1.14398C20.3745 0.350921 20.6051 0.0403783 21.1265 0.0354647C21.6552 0.030551 21.9066 0.351904 21.9066 1.12826C21.9066 1.44667 22.0323 1.51054 22.3314 1.50661C23.3868 1.49384 24.4431 1.49973 25.4995 1.50268C26.3492 1.50465 26.5881 1.72773 26.5902 2.51391C26.5912 2.98857 26.5507 3.46716 26.6016 3.93789C26.6515 4.40468 26.4458 4.4666 26.0168 4.46561C22.5724 4.45087 19.127 4.45775 15.6826 4.45775Z" fill="#495E57"/>
</svg>
