<svg width="26" height="26" viewBox="0 0 26 26" fill="none" xmlns="http://www.w3.org/2000/svg">
<path d="M21.4852 18.2723L17.4579 14.5352C17.2676 14.3586 17.016 14.2629 16.7564 14.2683C16.4968 14.2737 16.2495 14.3797 16.0666 14.5641L13.6487 17.0006C13.0738 16.8848 11.9196 16.512 10.7397 15.311C9.5599 14.1059 9.21072 12.9413 9.10954 12.3682L11.5927 9.99936C11.781 9.8204 11.8922 9.57521 11.9029 9.31569C11.9135 9.05617 11.8228 8.80268 11.6499 8.60887L7.99638 4.50753C7.82339 4.31311 7.58142 4.1938 7.32188 4.17491C7.06233 4.15603 6.80564 4.23907 6.60633 4.40639L4.41753 6.24524C4.24289 6.41699 4.13735 6.64686 4.12095 6.89126C4.10341 7.14109 3.75723 13.0599 8.3023 17.7003C12.2674 21.7458 17.2821 22.0898 18.6641 22.1039C18.8661 22.1059 18.9901 22.1012 19.0231 22.0995C19.2678 22.0883 19.4996 21.987 19.6741 21.8151L21.556 19.6631C21.728 19.4679 21.8169 19.2132 21.8037 18.9533C21.7904 18.6935 21.6761 18.4491 21.4852 18.2723Z" fill="#495E57"/>
</svg>
