<svg width="35" height="24" viewBox="0 0 35 24" fill="none" xmlns="http://www.w3.org/2000/svg">
<path d="M17.2819 0.0940888C12.772 0.0940888 8.26207 0.0940888 3.75213 0.0940888C3.25278 0.0940888 2.5734 -0.0194404 2.36446 0.399843C2.22517 0.679795 2.87695 1.05006 3.19102 1.36097C7.51304 5.62863 11.8416 9.88984 16.1689 14.1523C17.0034 14.9741 17.5513 14.9741 18.3818 14.1575C22.8944 9.7131 27.4083 5.2674 31.9169 0.819126C32.047 0.690116 32.3033 0.588198 32.2402 0.383072C32.1784 0.183106 31.9077 0.194717 31.7224 0.166335C31.4005 0.116021 31.0706 0.0979589 30.7447 0.0979589C26.2571 0.0940886 21.7695 0.0953791 17.2806 0.0953791L17.2819 0.0940888Z" fill="#F48014"/>
<path d="M2.26713 23.0364C2.63901 23.275 3.04506 23.3202 3.46163 23.3202C12.676 23.3202 21.8904 23.3202 31.106 23.3202C31.5213 23.3202 31.9208 23.2596 32.3281 23.0273C32.177 22.8648 32.0653 22.7358 31.9444 22.6171C28.8708 19.5866 25.7879 16.5665 22.7327 13.5193C22.3358 13.1245 22.1335 13.1477 21.7721 13.5348C21.0467 14.3088 20.2753 15.0429 19.5079 15.7783C18.203 17.0284 16.3489 17.0258 15.0427 15.7705C14.2292 14.9887 13.429 14.194 12.6326 13.3967C12.425 13.189 12.2844 13.0755 12.0084 13.349C8.8047 16.5239 5.58782 19.6873 2.37619 22.8545C2.33283 22.897 2.3118 22.9615 2.26844 23.0364H2.26713Z" fill="#F48014"/>
<path d="M33.7678 21.634C34.0345 21.2276 34.1016 20.8122 34.1016 20.3813C34.1016 14.5978 34.1016 8.81423 34.1016 3.03199C34.1016 2.60109 34.0359 2.18568 33.7678 1.7793C33.6088 1.92121 33.4603 2.04377 33.3236 2.17665C30.246 5.20581 27.1763 8.24271 24.0843 11.2577C23.719 11.6138 23.719 11.8008 24.0843 12.1569C27.1763 15.1719 30.246 18.2088 33.3236 21.2366C33.459 21.3708 33.6075 21.4921 33.7678 21.634Z" fill="#F48014"/>
<path d="M0.793797 1.7793C0.523095 2.18439 0.458703 2.59851 0.458703 3.02941C0.458703 8.81165 0.458703 14.5939 0.458703 20.3774C0.458703 20.8096 0.527035 21.225 0.77014 21.6004C1.0093 21.5308 1.12889 21.3385 1.28001 21.1902C4.34314 18.1791 7.39707 15.1577 10.4733 12.1569C10.8347 11.8047 10.8479 11.6189 10.4786 11.259C7.38656 8.24529 4.31685 5.20839 1.23927 2.18052C1.10392 2.04635 0.955426 1.92379 0.795108 1.78059L0.793797 1.7793Z" fill="#F48014"/>
</svg>
