<svg width="28" height="27" viewBox="0 0 28 27" fill="none" xmlns="http://www.w3.org/2000/svg">
<path d="M19.0734 26.4311C17.3508 26.3803 15.6665 25.8196 14.0576 25.0356C8.28141 22.2249 3.97503 17.9884 1.23722 12.2641C0.554358 10.8354 0.0329206 9.34848 0.00106085 7.7401C-0.022303 6.59066 0.338774 5.61151 1.23085 4.82238C1.83406 4.28868 2.38311 3.6989 2.96614 3.14443C3.99627 2.16424 5.01791 2.14867 6.0353 3.12055C7.07286 4.11112 8.09981 5.11311 9.10976 6.13172C10.1208 7.1524 10.108 8.1004 9.09596 9.12627C8.5554 9.67347 8.01485 10.2238 7.43713 10.7326C7.04738 11.0763 6.97197 11.3815 7.2226 11.854C8.54691 14.3481 10.4925 16.3043 12.7227 18.0196C13.448 18.5772 14.2466 19.0195 15.0665 19.4317C15.4137 19.6062 15.6463 19.5532 15.9033 19.2905C16.4779 18.7039 17.0683 18.1307 17.662 17.5607C18.7346 16.5317 19.7297 16.5286 20.8023 17.5607C21.8112 18.5315 22.8148 19.5075 23.8056 20.4939C24.8474 21.5312 24.8347 22.526 23.7844 23.5705C23.2141 24.1375 22.6374 24.6992 22.065 25.2641C21.1952 26.1228 20.4062 26.4426 19.0723 26.4311H19.0734Z" fill="#F48014"/>
<path d="M13.7714 1.6206C13.8128 1.34959 13.8393 1.16166 13.8701 0.973717C13.9983 0.207427 14.4585 -0.09542 15.2507 0.0651756C21.1097 1.25511 25.9885 6.14047 27.1079 11.9115C27.178 12.2729 27.0856 12.3684 26.7585 12.4089C26.373 12.4556 25.9864 12.5127 25.6094 12.6031C25.2112 12.6996 25.0582 12.5709 24.9775 12.1794C24.4837 9.7601 23.3378 7.6637 21.6014 5.88192C19.6017 3.83017 17.1782 2.52706 14.3194 2.00686C14.0794 1.96325 13.6248 2.05774 13.7703 1.61956L13.7714 1.6206Z" fill="#F48014"/>
<path d="M13.958 5.19025C16.5556 5.66373 18.5691 6.89727 20.0697 8.92098C20.8248 9.94062 21.3271 11.0724 21.6011 12.3059C21.6648 12.5904 21.6415 12.7078 21.3144 12.7441C20.7887 12.8033 20.212 13.092 19.7628 12.9539C19.2637 12.8002 19.3975 12.0785 19.1946 11.6238C18.1783 9.34566 16.4728 7.87226 13.9834 7.33129C13.5045 7.22746 13.4355 7.04782 13.5268 6.64184C13.6139 6.25558 13.6532 5.85789 13.6999 5.46333C13.7254 5.24943 13.7987 5.13314 13.958 5.19025Z" fill="#F48014"/>
</svg>
