<svg width="17" height="19" viewBox="0 0 17 19" fill="none" xmlns="http://www.w3.org/2000/svg">
<path d="M8.72 18.3C7.01333 18.3 5.50667 17.94 4.2 17.22C2.90667 16.5 1.89333 15.4933 1.16 14.2C0.44 12.8933 0.08 11.3733 0.08 9.64C0.08 8.29333 0.293333 7.07333 0.72 5.98C1.14667 4.88667 1.76 3.94667 2.56 3.16C3.36 2.37333 4.30667 1.76667 5.4 1.34C6.50667 0.913333 7.72667 0.699999 9.06 0.699999C10.6333 0.699999 12.0067 1.01333 13.18 1.64C14.3667 2.25333 15.2867 3.12 15.94 4.24C16.5933 5.34667 16.92 6.65333 16.92 8.16C16.92 9.32 16.7533 10.3267 16.42 11.18C16.1 12.02 15.6467 12.6733 15.06 13.14C14.4867 13.5933 13.8133 13.82 13.04 13.82C12.3867 13.82 11.8467 13.6733 11.42 13.38C10.9933 13.0733 10.7067 12.6467 10.56 12.1C10.2 12.6733 9.76667 13.1067 9.26 13.4C8.75333 13.68 8.21333 13.82 7.64 13.82C6.57333 13.82 5.74667 13.4867 5.16 12.82C4.57333 12.1533 4.28 11.24 4.28 10.08C4.28 9.10667 4.46 8.24 4.82 7.48C5.19333 6.72 5.7 6.12 6.34 5.68C6.99333 5.24 7.73333 5.02 8.56 5.02C9.74667 5.02 10.56 5.49333 11 6.44L11.22 5.22H13.08L12.24 10.04C12.16 10.48 12.12 10.84 12.12 11.12C12.12 11.9333 12.4667 12.34 13.16 12.34C13.8133 12.34 14.34 11.96 14.74 11.2C15.1533 10.4267 15.36 9.41333 15.36 8.16C15.36 6.92 15.1 5.86 14.58 4.98C14.0733 4.1 13.3467 3.42667 12.4 2.96C11.4667 2.48 10.3467 2.24 9.04 2.24C7.58667 2.24 6.32 2.54667 5.24 3.16C4.16 3.76 3.32 4.61333 2.72 5.72C2.12 6.82667 1.82 8.13333 1.82 9.64C1.82 11.12 2.1 12.3933 2.66 13.46C3.23333 14.5267 4.03333 15.34 5.06 15.9C6.1 16.4733 7.32 16.76 8.72 16.76C10.7467 16.76 12.3667 16.2067 13.58 15.1L14.38 16.42C13.74 17.02 12.9333 17.48 11.96 17.8C10.9867 18.1333 9.90667 18.3 8.72 18.3ZM8 12.24C8.76 12.24 9.38 11.9 9.86 11.22C10.3533 10.54 10.6 9.65333 10.6 8.56C10.6 7.26667 10.0267 6.62 8.88 6.62C8.10667 6.62 7.47333 6.94 6.98 7.58C6.48667 8.22 6.24 9.04667 6.24 10.06C6.24 10.7667 6.39333 11.3067 6.7 11.68C7.00667 12.0533 7.44 12.24 8 12.24Z" fill="#495E57"/>
</svg>
