<svg width="182" height="81" viewBox="0 0 182 81" fill="none" xmlns="http://www.w3.org/2000/svg">
<path d="M60.3013 27.1429L60.8908 33.985L59.7118 34.2797C59.3469 34.0973 58.975 33.8517 58.5961 33.5429C58.2171 33.2201 57.9083 32.8341 57.6697 32.385L58.1329 26.8692L57.9224 22.0692L54.2382 33.2482L53.4592 33.5008C52.561 32.9815 51.8662 32.2376 51.375 31.2692L49.7539 22.5955L49.1855 27.1429L48.9961 33.985L47.775 34.2797C47.0452 33.9148 46.4346 33.2832 45.9434 32.385L47.1434 26.8692L47.7329 21.5008L45.9645 21.5639C45.768 21.2271 45.6557 20.8411 45.6276 20.406C45.6136 19.9569 45.6557 19.5569 45.7539 19.206H48.8066C49.0171 19.3043 49.2697 19.4587 49.5645 19.6692C49.8732 19.8797 50.182 20.1043 50.4908 20.3429C50.8136 20.5815 51.0873 20.806 51.3118 21.0166L53.3961 29.7534L57.0382 19.4797L57.6487 19.0587C57.8031 19.0867 58.0276 19.1639 58.3224 19.2903C58.6311 19.4166 58.9329 19.5569 59.2276 19.7113C59.5224 19.8657 59.7329 20.0131 59.8592 20.1534L60.3013 27.1429Z" fill="#F48014"/>
<path d="M73.4219 31.2482C73.5201 31.4166 73.6394 31.6552 73.7798 31.9639C73.9201 32.2587 74.0043 32.5674 74.0324 32.8903L71.1903 34.2797C71.0499 34.2657 70.8464 34.1885 70.5798 34.0482C70.3271 33.9078 70.0675 33.7534 69.8008 33.585C69.5482 33.4166 69.3587 33.2832 69.2324 33.185L69.3166 31.4376C68.5728 32.2517 67.8359 32.9324 67.1061 33.4797C66.3903 34.0131 65.8289 34.2797 65.4219 34.2797C65.2114 34.1674 64.9306 33.971 64.5798 33.6903C64.2429 33.4096 63.9271 33.0938 63.6324 32.7429C63.3377 32.392 63.1482 32.0552 63.064 31.7324L63.5482 25.7324L61.9903 26.1324C61.864 25.9639 61.7377 25.7253 61.6113 25.4166C61.485 25.1078 61.4078 24.792 61.3798 24.4692L64.2219 23.0797C64.5868 23.2622 64.9728 23.5008 65.3798 23.7955C65.8008 24.0903 66.1236 24.4131 66.3482 24.7639C66.0956 25.6341 65.9131 26.5253 65.8008 27.4376C65.7026 28.3359 65.6605 29.178 65.6745 29.9639C65.6885 30.7359 65.7447 31.3745 65.8429 31.8797C66.3622 31.6692 66.9236 31.2341 67.5271 30.5745C68.1447 29.9008 68.7131 29.1359 69.2324 28.2797L69.3377 23.6271C69.6605 23.5429 70.0605 23.4657 70.5377 23.3955C71.0289 23.3253 71.4289 23.3324 71.7377 23.4166C71.9622 23.6411 72.1587 23.8867 72.3271 24.1534C72.4956 24.4201 72.6499 24.7008 72.7903 24.9955C72.7482 25.571 72.5938 26.1815 72.3271 26.8271C72.0745 27.4727 71.7447 28.1183 71.3377 28.7639V28.806L71.5903 31.7113L73.4219 31.2482Z" fill="#F48014"/>
<path d="M77.0651 25.4797C77.2757 25.9148 77.6055 26.3008 78.0546 26.6376C78.5037 26.9604 79.009 27.3043 79.5704 27.6692C80.1318 28.0201 80.6862 28.4411 81.2336 28.9324C81.795 29.4096 82.2932 30.0201 82.7283 30.7639C82.616 31.4096 82.4125 32.0201 82.1178 32.5955C81.823 33.171 81.4651 33.6201 81.0441 33.9429C80.3564 34.1253 79.5985 34.2236 78.7704 34.2376C77.9423 34.2657 77.0581 34.1885 76.1178 34.006C75.9353 33.8657 75.7248 33.6903 75.4862 33.4797C75.2476 33.2552 75.0371 33.0236 74.8546 32.785L74.9599 30.0271C75.1985 29.9429 75.4792 29.8938 75.802 29.8797C76.1248 29.8517 76.4195 29.8727 76.6862 29.9429L77.023 32.2376C77.6406 32.3359 78.2722 32.3429 78.9178 32.2587C79.5774 32.1604 80.1248 32.006 80.5599 31.7955C80.209 31.3324 79.7669 30.9183 79.2336 30.5534C78.7143 30.1885 78.1669 29.8306 77.5914 29.4797C77.03 29.1148 76.5037 28.7008 76.0125 28.2376C75.5353 27.7745 75.1634 27.206 74.8967 26.5324C74.9388 26.2236 75.03 25.8727 75.1704 25.4797C75.3107 25.0727 75.4792 24.6867 75.6757 24.3218C75.8862 23.9569 76.1107 23.6692 76.3493 23.4587C77.2616 23.206 78.1318 23.0797 78.9599 23.0797C79.7879 23.0657 80.6722 23.1569 81.6125 23.3534C81.795 23.4657 81.9844 23.6622 82.1809 23.9429C82.3914 24.2236 82.5529 24.4482 82.6651 24.6166L82.3704 27.2271C82.1318 27.3113 81.8581 27.3534 81.5493 27.3534C81.2406 27.3534 80.9458 27.3253 80.6651 27.2692L80.4757 25.1218C79.9143 25.0797 79.3318 25.0867 78.7283 25.1429C78.1388 25.199 77.5844 25.3113 77.0651 25.4797Z" fill="#F48014"/>
<path d="M87.127 21.8797C86.3972 21.4867 85.7375 20.9674 85.148 20.3218C85.1621 20.0973 85.2533 19.8446 85.4217 19.5639C85.6042 19.2692 85.8147 19.0025 86.0533 18.7639C86.3059 18.5113 86.5445 18.3569 86.7691 18.3008C86.9936 18.3008 87.2463 18.392 87.527 18.5745C87.8077 18.7429 88.0673 18.9534 88.3059 19.206C88.5445 19.4446 88.6849 19.6762 88.727 19.9008C88.7129 20.1394 88.6147 20.406 88.4322 20.7008C88.2498 20.9815 88.0393 21.2341 87.8007 21.4587C87.5621 21.6692 87.3375 21.8096 87.127 21.8797ZM89.4428 31.1218C89.541 31.2903 89.6603 31.5499 89.8007 31.9008C89.941 32.2376 90.0252 32.5674 90.0533 32.8903L87.2112 34.2797C86.1445 33.7885 85.4147 33.1569 85.0217 32.385L85.4638 25.7745L83.927 26.2376C83.8287 26.0692 83.7094 25.8166 83.5691 25.4797C83.4287 25.1289 83.3445 24.792 83.3164 24.4692L86.1586 23.0797C86.2989 23.0938 86.5024 23.171 86.7691 23.3113C87.0357 23.4517 87.2954 23.606 87.548 23.7745C87.8147 23.9429 88.0182 24.0832 88.1586 24.1955L87.5691 28.8271V31.6903L89.4428 31.1218Z" fill="#F48014"/>
<path d="M93.3965 31.9218L98.386 30.7008C98.4843 30.8271 98.5825 31.0727 98.6808 31.4376C98.793 31.8025 98.8422 32.1253 98.8281 32.406C98.2387 32.6587 97.6422 32.9043 97.0387 33.1429C96.4492 33.3815 95.9018 33.599 95.3965 33.7955C94.9053 33.992 94.5053 34.1534 94.1965 34.2797C93.7615 34.1674 93.3053 33.992 92.8281 33.7534C92.3509 33.5148 91.9158 33.2341 91.5229 32.9113C91.1299 32.5745 90.8492 32.2376 90.6808 31.9008L90.9755 25.4587C91.172 25.1078 91.4457 24.7569 91.7965 24.406C92.1615 24.0411 92.5194 23.7113 92.8702 23.4166C93.6843 23.2341 94.4772 23.1218 95.2492 23.0797C96.0351 23.0376 96.786 23.0727 97.5018 23.185C97.6843 23.2973 97.9158 23.4867 98.1965 23.7534C98.4913 24.0201 98.7088 24.2376 98.8492 24.406L98.5544 27.7745C98.0211 27.9569 97.4387 27.9569 96.8071 27.7745L96.5334 25.3324C96.0702 25.2903 95.6141 25.2832 95.165 25.3113C94.7158 25.3394 94.2457 25.4166 93.7544 25.5429C93.558 26.1885 93.4176 26.8903 93.3334 27.6482C93.2492 28.392 93.2141 29.1359 93.2281 29.8797C93.2422 30.6236 93.2983 31.3043 93.3965 31.9218Z" fill="#F48014"/>
<path d="M113.209 26.3008C113.883 26.6938 114.374 27.1289 114.683 27.606C114.991 28.0692 115.167 28.6306 115.209 29.2903C115.251 29.9359 115.202 30.7289 115.062 31.6692C114.935 31.9218 114.718 32.1955 114.409 32.4903C114.114 32.785 113.777 33.0657 113.398 33.3324C113.019 33.585 112.654 33.7955 112.304 33.9639C111.953 34.1464 111.665 34.2517 111.44 34.2797L106.872 33.6482L105.819 34.2797C105.23 34.0692 104.774 33.7534 104.451 33.3324L105.272 26.8692L105.019 19.206L105.63 18.785C105.826 18.8131 106.114 18.9253 106.493 19.1218C106.886 19.3043 107.209 19.4938 107.462 19.6903C108.009 19.4096 108.584 19.199 109.188 19.0587C109.805 18.9043 110.402 18.8131 110.977 18.785C111.553 18.7569 112.065 18.792 112.514 18.8903C112.893 19.1008 113.244 19.3674 113.567 19.6903C113.904 20.0131 114.198 20.3359 114.451 20.6587C114.704 20.9815 114.893 21.2622 115.019 21.5008L114.851 24.6587L113.209 26.3008ZM112.304 21.2271C111.658 21.0867 110.9 21.0587 110.03 21.1429C109.16 21.2131 108.353 21.4446 107.609 21.8376L107.504 25.3534L112.304 24.5955C112.388 23.9359 112.43 23.3183 112.43 22.7429C112.444 22.1674 112.402 21.6622 112.304 21.2271ZM107.44 31.8587L112.472 31.3955C112.711 30.4131 112.76 29.585 112.619 28.9113C112.493 28.2236 112.142 27.578 111.567 26.9745L107.44 27.2692V31.8587Z" fill="#F48014"/>
<path d="M127.231 24.9955C127.189 25.5008 127.07 26.0341 126.873 26.5955C126.677 27.1569 126.417 27.7183 126.094 28.2797L126.389 35.206C126.249 35.5148 126.038 35.8727 125.757 36.2797C125.491 36.6867 125.189 37.0797 124.852 37.4587C124.529 37.8376 124.207 38.1394 123.884 38.3639C123.252 38.5324 122.564 38.6446 121.821 38.7008C121.091 38.771 120.354 38.785 119.61 38.7429C118.88 38.7008 118.2 38.6236 117.568 38.5113C117.554 38.2867 117.561 38.006 117.589 37.6692C117.617 37.3464 117.659 37.0236 117.715 36.7008C117.785 36.378 117.87 36.1183 117.968 35.9218C118.431 36.0903 118.971 36.2166 119.589 36.3008C120.207 36.399 120.831 36.4482 121.463 36.4482C122.108 36.4482 122.698 36.4131 123.231 36.3429C123.554 35.599 123.792 34.8131 123.947 33.985C124.115 33.1569 124.214 32.1604 124.242 30.9955C123.722 31.6131 123.182 32.1745 122.621 32.6797C122.073 33.171 121.561 33.5639 121.084 33.8587C120.607 34.1394 120.2 34.2797 119.863 34.2797C119.652 34.1674 119.371 33.971 119.021 33.6903C118.684 33.4096 118.368 33.0938 118.073 32.7429C117.778 32.392 117.589 32.0552 117.505 31.7324L117.989 25.7324L116.431 26.1324C116.305 25.9639 116.178 25.7253 116.052 25.4166C115.926 25.1078 115.849 24.792 115.821 24.4692L118.663 23.0797C119.028 23.2622 119.414 23.5008 119.821 23.7955C120.242 24.0903 120.564 24.4131 120.789 24.7639C120.536 25.6341 120.354 26.5253 120.242 27.4376C120.143 28.3359 120.101 29.178 120.115 29.9639C120.129 30.7359 120.185 31.3745 120.284 31.8797C120.677 31.7113 121.091 31.4236 121.526 31.0166C121.975 30.5955 122.41 30.0903 122.831 29.5008C123.266 28.9113 123.652 28.2797 123.989 27.606L123.778 23.6271C124.101 23.5429 124.501 23.4657 124.978 23.3955C125.456 23.3253 125.849 23.3324 126.157 23.4166C126.607 23.8797 126.964 24.406 127.231 24.9955Z" fill="#F48014"/>
<path d="M50.2761 49.2868C50.5231 50.0728 51.0059 50.8026 51.7245 51.4763C52.4431 52.1499 53.2852 52.8236 54.2508 53.4973C55.2389 54.1485 56.2494 54.8559 57.2824 55.6194C58.3378 56.3829 59.3259 57.2587 60.2466 58.2468C61.1897 59.2349 61.9532 60.3914 62.5371 61.7163C62.4024 62.5921 62.0768 63.4791 61.5603 64.3773C61.0438 65.2531 60.4262 66.0503 59.7076 66.7689C58.989 67.4875 58.248 68.0489 57.4845 68.4531C56.6761 68.5878 55.7441 68.6777 54.6887 68.7226C53.6332 68.79 52.5329 68.7675 51.3876 68.6552C50.2648 68.5429 49.1757 68.3184 48.1203 67.9815C47.8059 67.7345 47.4354 67.364 47.0087 66.8699C46.582 66.3759 46.2115 65.9156 45.8971 65.4889L46.4361 60.3015C46.8627 60.1668 47.3568 60.077 47.9182 60.0321C48.502 59.9871 49.0185 60.0321 49.4676 60.1668L49.7708 64.5457C50.669 64.6805 51.6459 64.7254 52.7013 64.6805C53.7792 64.6356 54.8346 64.5121 55.8676 64.3099C56.9231 64.0854 57.8325 63.771 58.5961 63.3668C58.1469 62.4685 57.5069 61.6489 56.6761 60.9078C55.8452 60.1443 54.9245 59.4145 53.9139 58.7184C52.9259 57.9998 51.9378 57.2699 50.9497 56.5289C49.9617 55.7878 49.0634 55.0019 48.255 54.171C47.469 53.3401 46.8739 52.4082 46.4697 51.3752C46.6269 50.4994 46.8964 49.6349 47.2782 48.7815C47.6824 47.9057 48.1427 47.1198 48.6592 46.4236C49.1982 45.705 49.7259 45.1661 50.2424 44.8068C53.4985 43.8861 56.8108 43.7626 60.1792 44.4363C60.4038 44.571 60.6283 44.8068 60.8529 45.1436C61.0775 45.458 61.2908 45.7949 61.4929 46.1542C61.7175 46.5135 61.8971 46.7942 62.0318 46.9963L61.5266 51.5773C61.0999 51.7345 60.6171 51.8131 60.0782 51.8131C59.5617 51.8131 59.0452 51.757 58.5287 51.6447L58.2255 48.0068C57.462 47.9394 56.6087 47.9394 55.6655 48.0068C54.7224 48.0517 53.7792 48.1752 52.8361 48.3773C51.8929 48.5794 51.0396 48.8826 50.2761 49.2868Z" fill="#262626"/>
<path d="M82.5805 45.7836L82.2774 57.4047L82.3111 68.3521L80.3574 68.8236C79.7735 68.5317 79.1784 68.1387 78.5721 67.6447C77.9658 67.1282 77.4718 66.5107 77.09 65.7921L78.5047 58.1457H69.5447L69.5784 68.3521L67.6247 68.8236C67.0409 68.5317 66.4458 68.1387 65.8395 67.6447C65.2332 67.1282 64.7391 66.5107 64.3574 65.7921L66.0079 56.9668L65.6037 44.7057L66.5805 44.0321C66.8275 44.077 67.1644 44.2005 67.5911 44.4026C68.0402 44.6047 68.4781 44.8292 68.9047 45.0763C69.3314 45.3233 69.6458 45.5591 69.8479 45.7836L69.6121 54.3731H78.6395L78.3363 44.7057L79.3132 44.0321C79.5602 44.077 79.897 44.2005 80.3237 44.4026C80.7728 44.6047 81.2107 44.8292 81.6374 45.0763C82.064 45.3233 82.3784 45.5591 82.5805 45.7836Z" fill="#262626"/>
<path d="M101.352 57.1689L104.485 67.6784L102.767 68.8236C102.138 68.7114 101.464 68.4643 100.746 68.0826C100.027 67.7008 99.376 67.218 98.7921 66.6342L98.2868 61.6826L90.5395 61.6489L88.5184 68.2847H86.5311C86.0595 67.8356 85.6328 67.3078 85.2511 66.7015C84.8693 66.0728 84.5661 65.3542 84.3416 64.5457L88.35 56.9331L91.4489 48.3099L87.9121 48.5457C87.5977 48.0068 87.4181 47.378 87.3732 46.6594C87.3507 45.9408 87.4181 45.3008 87.5753 44.7394H94.4805C94.9072 44.964 95.3788 45.2896 95.8953 45.7163C96.4342 46.1205 96.9507 46.5808 97.4447 47.0973C97.9612 47.5914 98.3991 48.1078 98.7584 48.6468L101.352 57.1689ZM91.6511 58.1121L97.8826 58.0447L97.8489 57.6742L94.9184 48.5121L91.6511 58.1121Z" fill="#262626"/>
<path d="M125.203 45.7836L124.9 57.4047L124.933 68.3521L122.98 68.8236C122.396 68.5317 121.801 68.1387 121.194 67.6447C120.588 67.1282 120.094 66.5107 119.712 65.7921L120.15 63.3668L112.336 50.4321L112.133 57.4047L112.167 68.3521L110.213 68.8236C109.63 68.5317 109.034 68.1387 108.428 67.6447C107.822 67.1282 107.328 66.5107 106.946 65.7921L108.597 56.9668L108.327 48.3773L105.632 48.4784C105.318 47.9394 105.138 47.3219 105.093 46.6257C105.071 45.9071 105.138 45.2671 105.296 44.7057H110.18C110.517 44.8629 110.921 45.1099 111.392 45.4468C111.886 45.7836 112.38 46.1429 112.874 46.5247C113.391 46.9064 113.829 47.2657 114.188 47.6026L121.026 58.7184L121.363 56.9668L120.959 44.7057L121.936 44.0321C122.183 44.077 122.519 44.2005 122.946 44.4026C123.395 44.6047 123.833 44.8292 124.26 45.0763C124.686 45.3233 125.001 45.5591 125.203 45.7836Z" fill="#262626"/>
<path d="M143.984 57.1689L147.116 67.6784L145.398 68.8236C144.77 68.7114 144.096 68.4643 143.377 68.0826C142.659 67.7008 142.008 67.218 141.424 66.6342L140.918 61.6826L133.171 61.6489L131.15 68.2847H129.163C128.691 67.8356 128.264 67.3078 127.883 66.7015C127.501 66.0728 127.198 65.3542 126.973 64.5457L130.982 56.9331L134.081 48.3099L130.544 48.5457C130.229 48.0068 130.05 47.378 130.005 46.6594C129.982 45.9408 130.05 45.3008 130.207 44.7394H137.112C137.539 44.964 138.01 45.2896 138.527 45.7163C139.066 46.1205 139.582 46.5808 140.076 47.0973C140.593 47.5914 141.031 48.1078 141.39 48.6468L143.984 57.1689ZM134.283 58.1121L140.514 58.0447L140.481 57.6742L137.55 48.5121L134.283 58.1121Z" fill="#262626"/>
<path d="M163.174 48.1078L155.562 59.1899L155.595 68.3521L153.642 68.8236C153.058 68.5317 152.463 68.1387 151.856 67.6447C151.25 67.1282 150.756 66.5107 150.374 65.7921L151.519 59.6615L143.907 45.5142L144.951 44.0321C145.759 44.0994 146.59 44.2342 147.444 44.4363C148.297 44.6384 149.004 45.0314 149.566 45.6152L150.677 49.9268L153.743 56.4278L157.077 50.9036L157.717 44.6721L159.402 44.0321C160.12 44.3913 160.839 44.964 161.557 45.7499C162.298 46.5359 162.837 47.3219 163.174 48.1078Z" fill="#262626"/>
<path d="M178.03 57.1689L181.162 67.6784L179.444 68.8236C178.816 68.7114 178.142 68.4643 177.423 68.0826C176.705 67.7008 176.054 67.218 175.47 66.6342L174.964 61.6826L167.217 61.6489L165.196 68.2847H163.209C162.737 67.8356 162.31 67.3078 161.929 66.7015C161.547 66.0728 161.244 65.3542 161.019 64.5457L165.028 56.9331L168.127 48.3099L164.59 48.5457C164.275 48.0068 164.096 47.378 164.051 46.6594C164.028 45.9408 164.096 45.3008 164.253 44.7394H171.158C171.585 44.964 172.056 45.2896 172.573 45.7163C173.112 46.1205 173.628 46.5808 174.122 47.0973C174.639 47.5914 175.077 48.1078 175.436 48.6468L178.03 57.1689ZM168.329 58.1121L174.56 58.0447L174.527 57.6742L171.596 48.5121L168.329 58.1121Z" fill="#262626"/>
<path d="M22.6667 14.0374C22.5885 16.504 22.8399 19.5057 22.4266 22.5075C22.0691 25.0555 21.438 27.5977 19.7289 29.4069C16.5956 32.7111 17.9193 36.696 17.8634 40.4133C17.8355 42.4145 19.6395 41.1754 20.4941 41.1172C25.599 40.7507 29.3858 42.9323 31.8879 47.4233C34.3957 51.9201 34.3007 56.4634 31.4579 60.8439C29.1512 64.4042 25.9006 66.4693 21.9518 67.4583C19.0736 68.1757 17.6326 70.0935 17.6289 73.2116C17.6289 74.3693 17.6959 75.556 17.4892 76.6846C17.048 79.093 14.9703 80.5124 12.7362 80.1052C10.5915 79.7155 9.22871 77.8074 9.40744 75.463C9.59175 73.1011 11.446 71.513 13.7918 71.5362C14.6128 71.5421 16.0594 73.0429 16.1432 70.6345C16.1991 68.9824 15.9589 68.104 14.0152 67.7782C7.77097 66.7427 2.50969 63.8515 0.711254 57.0452C-1.18213 49.8956 0.722427 43.5896 6.21269 38.7205C8.82657 36.3994 11.6862 34.3807 14.4062 32.1818C16.065 30.838 16.9977 25.8059 16.0091 23.9909C15.4395 22.9438 14.4788 23.0718 13.5572 23.0194C9.13934 22.7809 7.87708 21.3789 7.86591 16.7076C7.86033 13.4091 7.80447 10.1165 7.87708 6.81806C7.97203 2.26306 10.4128 0.0117394 15.1211 0.000104691C20.0864 -0.0173474 22.5048 2.14671 22.6611 6.82388C22.7337 9.05193 22.6723 11.28 22.6723 14.0432L22.6667 14.0374ZM16.2493 33.8106C12.7418 36.8473 9.75371 39.308 7.41909 42.461C1.45966 50.4948 4.6544 61.8678 13.7025 65.0732C15.3892 65.6723 16.2326 65.6491 16.1655 63.3512C16.0259 58.6101 16.1153 53.8631 16.1432 49.1219C16.1432 48.4006 15.9086 47.2546 16.8804 47.2255C17.9528 47.1964 17.6009 48.3773 17.6065 49.0521C17.6456 53.8922 17.7071 58.738 17.5953 63.5723C17.5507 65.5909 18.2823 66.033 20.0696 65.8585C25.1689 65.3582 28.5815 61.5071 29.3299 55.2069C29.9387 50.0993 27.1237 45.9224 22.3875 44.9102C17.6456 43.8921 12.982 46.6845 11.6583 51.4198C11.3008 52.7054 11.1779 54.0609 10.9489 55.3814C9.58615 51.1464 10.9099 46.8822 14.6184 43.5896C15.378 42.9148 16.3275 42.4669 16.2772 41.1289C16.1991 38.9357 16.2549 36.7309 16.2549 33.8106H16.2493ZM17.8858 28.5226C20.2874 25.4453 21.0805 22.554 21.1922 19.3894C21.2369 18.0921 21.1531 17.0275 19.4943 17.1788C18.9246 17.2311 18.2767 17.1439 18.2991 16.3585C18.3214 15.515 19.0419 15.6488 19.5669 15.6546C20.5388 15.6721 21.1475 15.4103 21.1922 14.2119C21.2425 12.7809 20.4382 12.6587 19.405 12.6878C18.8297 12.7052 18.2153 12.6471 18.3158 11.8035C18.3885 11.1927 18.9023 11.1462 19.3826 11.152C20.3768 11.1636 21.2425 11.1113 21.1922 9.64529C21.1475 8.41783 20.4494 8.25494 19.539 8.20259C19.0084 8.1735 18.3047 8.25494 18.3885 7.37652C18.4499 6.73661 19.0363 6.77152 19.4776 6.77734C21.4938 6.78897 21.3095 5.63131 20.6616 4.30496C19.5446 2.0071 17.6065 1.46608 15.2887 1.48935C13.0099 1.51262 10.9992 1.90238 9.88776 4.24678C9.28456 5.51497 8.93269 6.7308 11.0104 6.77734C11.5242 6.78897 12.2559 6.7308 12.1554 7.60922C12.0827 8.22004 11.4851 8.1735 11.0495 8.20259C10.1614 8.26076 9.41302 8.34221 9.36834 9.59876C9.31249 11.0124 10.0777 11.1694 11.1221 11.1578C11.7029 11.152 12.2838 11.3032 12.1833 12.1119C12.0995 12.7925 11.5075 12.6471 11.0886 12.682C10.2452 12.7459 9.40742 12.6529 9.37391 13.985C9.3404 15.2881 9.9101 15.6954 11.0551 15.6605C11.5689 15.643 12.2838 15.5848 12.2 16.4691C12.1442 17.0566 11.6304 17.1206 11.15 17.1788C10.4686 17.2602 9.55265 16.9345 9.43536 18.1154C9.32924 19.1625 9.74254 20.0002 10.4965 20.675C11.4237 21.5011 12.5463 21.4429 13.6689 21.4778C16.9363 21.5709 17.6736 22.3795 17.7629 25.8525C17.7797 26.5215 17.8299 27.1847 17.897 28.5226H17.8858Z" fill="#F48014"/>
</svg>
