<svg width="12" height="8" viewBox="0 0 12 8" fill="none" xmlns="http://www.w3.org/2000/svg">
<path d="M11.5563 0.929213C11.5579 1.22101 11.4383 1.42592 11.2689 1.60461C9.66906 3.2939 8.07151 4.98566 6.46619 6.66923C6.01574 7.14134 5.57693 7.12823 5.11561 6.643C3.52194 4.96681 1.9306 3.28735 0.342361 1.60543C-0.0816854 1.15626 -0.110421 0.650532 0.248388 0.267756C0.607197 -0.115021 1.09338 -0.0887922 1.51587 0.355458C2.85325 1.7628 4.1914 3.16768 5.5117 4.59223C5.75556 4.85616 5.87749 4.84058 6.11282 4.58731C7.41758 3.18489 8.73865 1.79968 10.0582 0.412834C10.4884 -0.0396131 10.9925 -0.054367 11.3451 0.359556C11.4895 0.529224 11.5656 0.72594 11.5555 0.928394L11.5563 0.929213Z" fill="#1B1B1B"/>
</svg>
