<svg width="48" height="65" viewBox="0 0 48 65" fill="none" xmlns="http://www.w3.org/2000/svg">
<path d="M22.1501 64.3814C15.1735 64.3814 8.1941 64.3564 1.21749 64.4065C0.0630502 64.4148 -0.156182 64.1228 0.0908018 63.0103C0.945533 59.1612 3.11289 56.4079 6.70942 54.8393C8.39945 54.1023 10.1672 53.5516 11.8739 52.848C12.5843 52.556 12.9395 52.7034 13.3003 53.3653C14.316 55.2342 15.3816 57.0753 16.4556 58.9109C17.1965 60.1791 17.7571 60.2403 18.82 59.2085C19.683 58.3714 20.5683 57.5509 21.3564 56.6443C21.953 55.9573 22.336 56.0658 22.8827 56.6832C23.6181 57.512 24.434 58.2712 25.2221 59.0527C26.5098 60.3293 26.9926 60.257 27.9195 58.6411C28.8853 56.9557 29.876 55.2843 30.7862 53.5711C31.2052 52.784 31.5993 52.5059 32.5068 52.9036C34.0691 53.5878 35.7175 54.0689 37.2883 54.7364C41.0457 56.3383 43.3074 59.1668 44.1539 63.1911C44.3842 64.2924 44.0179 64.4065 43.0854 64.4009C36.1088 64.3731 29.1295 64.3842 22.1529 64.3842L22.1501 64.3814Z" fill="#F48014"/>
<path d="M10.2988 28.2468C10.9648 29.006 11.5976 29.7931 12.3024 30.5134C14.1867 32.438 14.1978 32.4269 16.4901 30.9C17.5529 30.1908 18.6158 29.4844 19.8896 28.6362C19.8896 29.5289 19.9007 30.1574 19.8868 30.786C19.8757 31.3533 20.0866 31.7844 20.6083 32.018C21.0995 32.235 21.5019 32.0125 21.8738 31.7038C23.3529 30.4773 24.8348 29.2536 26.547 27.8324C26.547 28.8475 26.5498 29.5678 26.547 30.2909C26.5443 30.9417 26.4804 31.6175 27.202 31.9819C27.8791 32.324 28.3453 31.8651 28.8254 31.5258C30.5848 30.2826 32.3331 29.0227 34.3201 27.6016C34.2091 31.0085 34.6753 34.154 33.9676 37.241C32.6189 43.1121 26.9106 47.1447 20.9164 46.5412C14.7751 45.9238 9.99911 40.762 9.8992 34.6101C9.8659 32.577 9.89365 30.5468 9.89365 28.5138C10.0296 28.4248 10.1656 28.3386 10.3016 28.2496L10.2988 28.2468Z" fill="#F48014"/>
<path d="M2.46094 6.47286C9.06568 4.27019 15.318 2.18988 21.5675 0.0956754C21.9366 -0.0266954 22.2668 -0.0350389 22.6387 0.090113C28.891 2.18154 35.1433 4.26463 41.4067 6.35049C41.304 6.98738 40.7684 6.9095 40.4382 7.02353C34.6715 8.97312 28.891 10.8921 23.1188 12.825C22.5416 13.0169 22.0032 13.1337 21.3816 12.9224C15.3541 10.881 9.31544 8.86743 3.28237 6.84275C3.12141 6.78991 2.97156 6.7037 2.46371 6.47286H2.46094Z" fill="#F48014"/>
<path d="M36.5252 28.5661C36.5252 27.6872 36.5169 26.8112 36.528 25.9323C36.5363 25.3566 36.4975 24.8143 35.923 24.4889C35.3236 24.1468 34.8713 24.4778 34.4106 24.8059C32.6124 26.0908 30.8113 27.3702 28.755 28.8386C28.755 27.9347 28.7827 27.2701 28.7466 26.6081C28.7078 25.8572 29.038 24.9506 28.1333 24.4889C27.1315 23.9772 26.6237 24.9033 26.0104 25.3816C24.7533 26.3662 23.5489 27.4175 22.1697 28.5716C22.128 28.1572 22.1141 27.9876 22.0947 27.8179C22.0087 27.0309 22.4166 26.0547 21.4315 25.5875C20.4768 25.1341 19.8996 25.9963 19.2336 26.4107C17.9015 27.2422 16.5889 28.11 15.3207 29.0361C14.6547 29.5228 14.244 29.4338 13.7056 28.8442C12.676 27.7178 11.591 26.6415 10.4726 25.6014C9.87596 25.0451 9.43472 23.9716 8.34133 24.4722C7.29234 24.9534 7.74745 26.0046 7.67808 26.8334C7.6309 27.4202 7.66975 28.0126 7.5421 28.6161C6.67349 25.5652 4.8114 22.7451 5.67723 19.3243C5.96307 18.1951 6.36823 17.8698 7.5532 18.2063C11.8102 19.4216 16.1088 20.5007 20.3742 21.6911C21.5231 22.0109 22.5859 22.047 23.7487 21.7216C28.1028 20.5035 32.4875 19.4022 36.8388 18.1729C37.8684 17.8809 38.243 18.1729 38.4623 19.1185C38.7592 20.4006 38.9146 21.6799 38.5372 22.9593C37.9766 24.8532 37.3772 26.7333 36.7944 28.6189C36.7056 28.6022 36.614 28.5828 36.5252 28.5661Z" fill="#F48014"/>
<path d="M22.0969 19.8281C21.7944 19.753 21.4809 19.6779 21.17 19.5945C16.7604 18.4125 12.3591 17.1916 7.93281 16.0708C6.95875 15.8232 6.74784 15.4923 7.06976 14.5745C7.48047 13.4064 7.26956 11.6765 8.16592 11.1231C9.09558 10.5502 10.4665 11.632 11.6348 12.0047C14.6652 12.9753 17.6901 13.9738 20.6899 15.0334C21.6585 15.3755 22.516 15.3894 23.4928 15.0501C27.2836 13.7346 31.1077 12.5192 34.8985 11.201C35.8309 10.8756 36.3304 10.8895 36.508 12.0019C36.7023 13.2229 37.5459 14.6746 37.1269 15.5674C36.6856 16.513 34.9262 16.4017 33.744 16.7327C30.2807 17.7061 26.7979 18.6072 23.3207 19.5333C22.9211 19.639 22.516 19.728 22.0969 19.8281Z" fill="#F48014"/>
<path d="M22.0229 52.8153C21.8674 52.7123 21.6704 52.5983 21.4956 52.4565C20.3772 51.561 19.2811 50.6376 18.1405 49.7727C17.6465 49.3972 17.505 48.8938 17.727 48.4377C17.9712 47.9399 18.4596 48.3432 18.8287 48.4266C21.0765 48.9272 23.3133 48.9383 25.55 48.371C25.8442 48.2959 26.2105 48.0456 26.4408 48.3654C26.6573 48.6658 26.6822 49.1692 26.4158 49.4C25.0866 50.543 23.7101 51.6277 22.3448 52.729C22.2809 52.7819 22.1727 52.7791 22.0229 52.8153Z" fill="#F48014"/>
<path d="M45.4073 12.0938C46.6006 12.091 47.6079 13.0755 47.6301 14.2742C47.6523 15.4673 46.681 16.4963 45.4877 16.538C44.2445 16.5798 43.1789 15.534 43.1955 14.2853C43.2122 13.0811 44.2029 12.0993 45.4045 12.0938H45.4073Z" fill="#F48014"/>
<path d="M20.3194 54.4924C20.3194 54.6704 18.1576 56.8035 17.98 56.784C17.6387 56.7479 17.5832 56.4253 17.4555 56.2056C16.759 55.0124 16.0735 53.8138 15.4103 52.604C15.2521 52.3175 14.8164 51.9671 15.2243 51.6584C15.5629 51.3997 16.0846 51.0521 16.4953 51.3524C17.7552 52.2758 18.9541 53.2826 20.1723 54.2615C20.2389 54.3172 20.2722 54.4145 20.3222 54.4924H20.3194Z" fill="#F48014"/>
<path d="M27.7677 51.2919C28.8389 51.2446 29.244 51.7953 28.8583 52.5017C28.1728 53.7532 27.4347 54.9769 26.7575 56.2312C26.4301 56.8375 26.1914 56.882 25.6586 56.3925C23.6383 54.5458 23.6161 54.5625 25.7668 52.8466C26.4773 52.2792 27.2016 51.7313 27.7705 51.2919H27.7677Z" fill="#F48014"/>
<path d="M7.69763 34.5156C7.69763 34.7464 7.72816 34.9828 7.69208 35.2081C7.62271 35.6392 8.0806 36.251 7.58385 36.468C6.98443 36.7294 6.43219 36.2622 6.03257 35.8116C5.39707 35.0941 5.24999 34.2625 5.69124 33.3753C6.04645 32.6661 6.6431 32.0543 7.39515 32.2295C7.98069 32.3658 7.58385 33.1834 7.66711 33.6896C7.71151 33.9594 7.67543 34.2431 7.67543 34.5184H7.69763V34.5156Z" fill="#F48014"/>
<path d="M36.523 34.6152C36.523 34.0728 36.5008 33.6557 36.5285 33.2413C36.5535 32.8909 36.3398 32.4041 36.6951 32.2262C37.1502 31.9953 37.5775 32.3541 37.9327 32.6405C39.1427 33.6223 38.9762 35.494 37.6136 36.2588C37.2973 36.4368 36.9365 36.6843 36.5785 36.4813C36.2233 36.2783 36.4814 35.8945 36.4786 35.5941C36.473 35.227 36.5091 34.8571 36.5202 34.6152H36.523Z" fill="#F48014"/>
<path d="M46.5229 7.25473C46.5229 8.33104 46.4896 9.33504 46.534 10.3363C46.5646 10.9815 46.2982 11.2095 45.7459 10.9843C45.2714 10.7924 44.3389 11.5405 44.3556 10.5866C44.3695 9.61037 43.5453 8.20033 45.2797 7.72197C45.6682 7.61628 46.0373 7.43829 46.5229 7.25195V7.25473Z" fill="#F48014"/>
</svg>
