<svg width="182" height="81" viewBox="0 0 182 81" fill="none" xmlns="http://www.w3.org/2000/svg">
<path d="M60.3013 24.3753L60.8908 31.2174L59.7118 31.5122C59.3469 31.3297 58.975 31.0841 58.5961 30.7753C58.2171 30.4525 57.9083 30.0665 57.6697 29.6174L58.1329 24.1016L57.9224 19.3016L54.2382 30.4806L53.4592 30.7332C52.561 30.2139 51.8662 29.47 51.375 28.5016L49.7539 19.8279L49.1855 24.3753L48.9961 31.2174L47.775 31.5122C47.0452 31.1472 46.4346 30.5157 45.9434 29.6174L47.1434 24.1016L47.7329 18.7332L45.9645 18.7964C45.768 18.4595 45.6557 18.0736 45.6276 17.6385C45.6136 17.1893 45.6557 16.7893 45.7539 16.4385H48.8066C49.0171 16.5367 49.2697 16.6911 49.5645 16.9016C49.8732 17.1122 50.182 17.3367 50.4908 17.5753C50.8136 17.8139 51.0873 18.0385 51.3118 18.249L53.3961 26.9858L57.0382 16.7122L57.6487 16.2911C57.8031 16.3192 58.0276 16.3964 58.3224 16.5227C58.6311 16.649 58.9329 16.7893 59.2276 16.9437C59.5224 17.0981 59.7329 17.2455 59.8592 17.3858L60.3013 24.3753Z" fill="#F48014"/>
<path d="M73.4219 28.4806C73.5201 28.649 73.6394 28.8876 73.7798 29.1964C73.9201 29.4911 74.0043 29.7999 74.0324 30.1227L71.1903 31.5122C71.0499 31.4981 70.8464 31.4209 70.5798 31.2806C70.3271 31.1402 70.0675 30.9858 69.8008 30.8174C69.5482 30.649 69.3587 30.5157 69.2324 30.4174L69.3166 28.67C68.5728 29.4841 67.8359 30.1648 67.1061 30.7122C66.3903 31.2455 65.8289 31.5122 65.4219 31.5122C65.2114 31.3999 64.9306 31.2034 64.5798 30.9227C64.2429 30.642 63.9271 30.3262 63.6324 29.9753C63.3377 29.6244 63.1482 29.2876 63.064 28.9648L63.5482 22.9648L61.9903 23.3648C61.864 23.1964 61.7377 22.9578 61.6113 22.649C61.485 22.3402 61.4078 22.0244 61.3798 21.7016L64.2219 20.3122C64.5868 20.4946 64.9728 20.7332 65.3798 21.0279C65.8008 21.3227 66.1236 21.6455 66.3482 21.9964C66.0956 22.8665 65.9131 23.7578 65.8008 24.67C65.7026 25.5683 65.6605 26.4104 65.6745 27.1964C65.6885 27.9683 65.7447 28.6069 65.8429 29.1122C66.3622 28.9016 66.9236 28.4665 67.5271 27.8069C68.1447 27.1332 68.7131 26.3683 69.2324 25.5122L69.3377 20.8595C69.6605 20.7753 70.0605 20.6981 70.5377 20.6279C71.0289 20.5578 71.4289 20.5648 71.7377 20.649C71.9622 20.8736 72.1587 21.1192 72.3271 21.3858C72.4956 21.6525 72.6499 21.9332 72.7903 22.2279C72.7482 22.8034 72.5938 23.4139 72.3271 24.0595C72.0745 24.7051 71.7447 25.3507 71.3377 25.9964V26.0385L71.5903 28.9437L73.4219 28.4806Z" fill="#F48014"/>
<path d="M77.0651 22.7122C77.2757 23.1472 77.6055 23.5332 78.0546 23.87C78.5037 24.1929 79.009 24.5367 79.5704 24.9016C80.1318 25.2525 80.6862 25.6736 81.2336 26.1648C81.795 26.642 82.2932 27.2525 82.7283 27.9964C82.616 28.642 82.4125 29.2525 82.1178 29.8279C81.823 30.4034 81.4651 30.8525 81.0441 31.1753C80.3564 31.3578 79.5985 31.456 78.7704 31.47C77.9423 31.4981 77.0581 31.4209 76.1178 31.2385C75.9353 31.0981 75.7248 30.9227 75.4862 30.7122C75.2476 30.4876 75.0371 30.256 74.8546 30.0174L74.9599 27.2595C75.1985 27.1753 75.4792 27.1262 75.802 27.1122C76.1248 27.0841 76.4195 27.1051 76.6862 27.1753L77.023 29.47C77.6406 29.5683 78.2722 29.5753 78.9178 29.4911C79.5774 29.3929 80.1248 29.2385 80.5599 29.0279C80.209 28.5648 79.7669 28.1507 79.2336 27.7858C78.7143 27.4209 78.1669 27.063 77.5914 26.7122C77.03 26.3472 76.5037 25.9332 76.0125 25.47C75.5353 25.0069 75.1634 24.4385 74.8967 23.7648C74.9388 23.456 75.03 23.1051 75.1704 22.7122C75.3107 22.3051 75.4792 21.9192 75.6757 21.5543C75.8862 21.1893 76.1107 20.9016 76.3493 20.6911C77.2616 20.4385 78.1318 20.3122 78.9599 20.3122C79.7879 20.2981 80.6722 20.3893 81.6125 20.5858C81.795 20.6981 81.9844 20.8946 82.1809 21.1753C82.3915 21.456 82.5529 21.6806 82.6651 21.849L82.3704 24.4595C82.1318 24.5437 81.8581 24.5858 81.5493 24.5858C81.2406 24.5858 80.9458 24.5578 80.6651 24.5016L80.4757 22.3543C79.9143 22.3122 79.3318 22.3192 78.7283 22.3753C78.1388 22.4314 77.5844 22.5437 77.0651 22.7122Z" fill="#F48014"/>
<path d="M87.127 19.1122C86.3972 18.7192 85.7375 18.1999 85.148 17.5543C85.1621 17.3297 85.2533 17.0771 85.4217 16.7964C85.6042 16.5016 85.8147 16.235 86.0533 15.9964C86.3059 15.7437 86.5445 15.5893 86.7691 15.5332C86.9936 15.5332 87.2463 15.6244 87.527 15.8069C87.8077 15.9753 88.0673 16.1858 88.3059 16.4385C88.5445 16.6771 88.6849 16.9086 88.727 17.1332C88.7129 17.3718 88.6147 17.6385 88.4322 17.9332C88.2498 18.2139 88.0393 18.4665 87.8007 18.6911C87.5621 18.9016 87.3375 19.042 87.127 19.1122ZM89.4428 28.3543C89.541 28.5227 89.6603 28.7823 89.8007 29.1332C89.941 29.47 90.0252 29.7999 90.0533 30.1227L87.2112 31.5122C86.1445 31.0209 85.4147 30.3893 85.0217 29.6174L85.4638 23.0069L83.927 23.47C83.8287 23.3016 83.7094 23.049 83.5691 22.7122C83.4287 22.3613 83.3445 22.0244 83.3164 21.7016L86.1586 20.3122C86.2989 20.3262 86.5024 20.4034 86.7691 20.5437C87.0357 20.6841 87.2954 20.8385 87.548 21.0069C87.8147 21.1753 88.0182 21.3157 88.1586 21.4279L87.5691 26.0595V28.9227L89.4428 28.3543Z" fill="#F48014"/>
<path d="M93.3965 29.1543L98.386 27.9332C98.4843 28.0595 98.5825 28.3051 98.6808 28.67C98.793 29.035 98.8422 29.3578 98.8281 29.6385C98.2387 29.8911 97.6422 30.1367 97.0387 30.3753C96.4492 30.6139 95.9018 30.8314 95.3965 31.0279C94.9053 31.2244 94.5053 31.3858 94.1965 31.5122C93.7615 31.3999 93.3053 31.2244 92.8281 30.9858C92.3509 30.7472 91.9158 30.4665 91.5229 30.1437C91.1299 29.8069 90.8492 29.47 90.6808 29.1332L90.9755 22.6911C91.172 22.3402 91.4457 21.9893 91.7965 21.6385C92.1615 21.2736 92.5194 20.9437 92.8702 20.649C93.6843 20.4665 94.4772 20.3543 95.2492 20.3122C96.0351 20.27 96.786 20.3051 97.5018 20.4174C97.6843 20.5297 97.9158 20.7192 98.1965 20.9858C98.4913 21.2525 98.7088 21.47 98.8492 21.6385L98.5544 25.0069C98.0211 25.1893 97.4387 25.1893 96.8071 25.0069L96.5334 22.5648C96.0702 22.5227 95.6141 22.5157 95.165 22.5437C94.7158 22.5718 94.2457 22.649 93.7544 22.7753C93.558 23.4209 93.4176 24.1227 93.3334 24.8806C93.2492 25.6244 93.2141 26.3683 93.2281 27.1122C93.2422 27.856 93.2983 28.5367 93.3965 29.1543Z" fill="#F48014"/>
<path d="M113.209 23.5332C113.883 23.9262 114.374 24.3613 114.683 24.8385C114.991 25.3016 115.167 25.863 115.209 26.5227C115.251 27.1683 115.202 27.9613 115.062 28.9016C114.935 29.1543 114.718 29.4279 114.409 29.7227C114.114 30.0174 113.777 30.2981 113.398 30.5648C113.019 30.8174 112.654 31.0279 112.304 31.1964C111.953 31.3788 111.665 31.4841 111.44 31.5122L106.872 30.8806L105.819 31.5122C105.23 31.3016 104.774 30.9858 104.451 30.5648L105.272 24.1016L105.019 16.4385L105.63 16.0174C105.826 16.0455 106.114 16.1578 106.493 16.3543C106.886 16.5367 107.209 16.7262 107.462 16.9227C108.009 16.642 108.584 16.4314 109.188 16.2911C109.805 16.1367 110.402 16.0455 110.977 16.0174C111.553 15.9893 112.065 16.0244 112.514 16.1227C112.893 16.3332 113.244 16.5999 113.567 16.9227C113.904 17.2455 114.198 17.5683 114.451 17.8911C114.704 18.2139 114.893 18.4946 115.019 18.7332L114.851 21.8911L113.209 23.5332ZM112.304 18.4595C111.658 18.3192 110.9 18.2911 110.03 18.3753C109.16 18.4455 108.353 18.6771 107.609 19.07L107.504 22.5858L112.304 21.8279C112.388 21.1683 112.43 20.5507 112.43 19.9753C112.444 19.3999 112.402 18.8946 112.304 18.4595ZM107.44 29.0911L112.472 28.6279C112.711 27.6455 112.76 26.8174 112.619 26.1437C112.493 25.456 112.142 24.8104 111.567 24.2069L107.44 24.5016V29.0911Z" fill="#F48014"/>
<path d="M127.231 22.2279C127.189 22.7332 127.07 23.2665 126.873 23.8279C126.677 24.3893 126.417 24.9507 126.094 25.5122L126.389 32.4385C126.249 32.7472 126.038 33.1051 125.757 33.5122C125.491 33.9192 125.189 34.3122 124.852 34.6911C124.529 35.07 124.207 35.3718 123.884 35.5964C123.252 35.7648 122.564 35.8771 121.821 35.9332C121.091 36.0034 120.354 36.0174 119.61 35.9753C118.88 35.9332 118.2 35.856 117.568 35.7437C117.554 35.5192 117.561 35.2385 117.589 34.9016C117.617 34.5788 117.659 34.256 117.715 33.9332C117.785 33.6104 117.87 33.3507 117.968 33.1543C118.431 33.3227 118.971 33.449 119.589 33.5332C120.207 33.6314 120.831 33.6806 121.463 33.6806C122.108 33.6806 122.698 33.6455 123.231 33.5753C123.554 32.8315 123.792 32.0455 123.947 31.2174C124.115 30.3893 124.214 29.3929 124.242 28.2279C123.722 28.8455 123.182 29.4069 122.621 29.9122C122.073 30.4034 121.561 30.7964 121.084 31.0911C120.607 31.3718 120.2 31.5122 119.863 31.5122C119.652 31.3999 119.371 31.2034 119.021 30.9227C118.684 30.642 118.368 30.3262 118.073 29.9753C117.778 29.6244 117.589 29.2876 117.505 28.9648L117.989 22.9648L116.431 23.3648C116.305 23.1964 116.178 22.9578 116.052 22.649C115.926 22.3402 115.849 22.0244 115.821 21.7016L118.663 20.3122C119.028 20.4946 119.414 20.7332 119.821 21.0279C120.242 21.3227 120.564 21.6455 120.789 21.9964C120.536 22.8665 120.354 23.7578 120.242 24.67C120.143 25.5683 120.101 26.4104 120.115 27.1964C120.129 27.9683 120.185 28.6069 120.284 29.1122C120.677 28.9437 121.091 28.656 121.526 28.249C121.975 27.8279 122.41 27.3227 122.831 26.7332C123.266 26.1437 123.652 25.5122 123.989 24.8385L123.778 20.8595C124.101 20.7753 124.501 20.6981 124.978 20.6279C125.456 20.5578 125.849 20.5648 126.157 20.649C126.607 21.1122 126.964 21.6385 127.231 22.2279Z" fill="#F48014"/>
<path d="M50.2761 46.5192C50.5231 47.3052 51.0059 48.035 51.7245 48.7087C52.4431 49.3824 53.2852 50.0561 54.2508 50.7297C55.2389 51.381 56.2494 52.0883 57.2824 52.8518C58.3378 53.6154 59.3259 54.4911 60.2466 55.4792C61.1897 56.4673 61.9532 57.6238 62.5371 58.9487C62.4024 59.8245 62.0768 60.7115 61.5603 61.6097C61.0438 62.4855 60.4262 63.2827 59.7076 64.0013C58.989 64.7199 58.248 65.2813 57.4845 65.6855C56.6761 65.8203 55.7441 65.9101 54.6887 65.955C53.6332 66.0224 52.5329 65.9999 51.3876 65.8876C50.2648 65.7754 49.1757 65.5508 48.1203 65.214C47.8059 64.9669 47.4354 64.5964 47.0087 64.1024C46.582 63.6083 46.2115 63.148 45.8971 62.7213L46.4361 57.534C46.8627 57.3992 47.3568 57.3094 47.9182 57.2645C48.502 57.2196 49.0185 57.2645 49.4676 57.3992L49.7708 61.7782C50.669 61.9129 51.6459 61.9578 52.7013 61.9129C53.7792 61.868 54.8346 61.7445 55.8676 61.5424C56.9231 61.3178 57.8325 61.0034 58.5961 60.5992C58.1469 59.701 57.5069 58.8813 56.6761 58.1403C55.8452 57.3768 54.9245 56.6469 53.9139 55.9508C52.9259 55.2322 51.9378 54.5024 50.9497 53.7613C49.9617 53.0203 49.0634 52.2343 48.255 51.4034C47.469 50.5725 46.8739 49.6406 46.4697 48.6076C46.6269 47.7318 46.8964 46.8673 47.2782 46.014C47.6824 45.1382 48.1427 44.3522 48.6592 43.6561C49.1982 42.9375 49.7259 42.3985 50.2424 42.0392C53.4985 41.1185 56.8108 40.995 60.1792 41.6687C60.4038 41.8034 60.6283 42.0392 60.8529 42.3761C61.0775 42.6904 61.2908 43.0273 61.4929 43.3866C61.7175 43.7459 61.8971 44.0266 62.0318 44.2287L61.5266 48.8097C61.0999 48.9669 60.6171 49.0455 60.0782 49.0455C59.5617 49.0455 59.0452 48.9894 58.5287 48.8771L58.2255 45.2392C57.462 45.1718 56.6087 45.1718 55.6655 45.2392C54.7224 45.2841 53.7792 45.4076 52.8361 45.6097C51.8929 45.8118 51.0396 46.115 50.2761 46.5192Z" fill="#262626"/>
<path d="M82.5805 43.0161L82.2774 54.6371L82.3111 65.5845L80.3574 66.0561C79.7735 65.7641 79.1784 65.3711 78.5721 64.8771C77.9658 64.3606 77.4718 63.7431 77.09 63.0245L78.5047 55.3782H69.5447L69.5784 65.5845L67.6247 66.0561C67.0409 65.7641 66.4458 65.3711 65.8395 64.8771C65.2332 64.3606 64.7391 63.7431 64.3574 63.0245L66.0079 54.1992L65.6037 41.9382L66.5805 41.2645C66.8275 41.3094 67.1644 41.4329 67.5911 41.635C68.0402 41.8371 68.4781 42.0617 68.9047 42.3087C69.3314 42.5557 69.6458 42.7915 69.8479 43.0161L69.6121 51.6055H78.6395L78.3363 41.9382L79.3132 41.2645C79.5602 41.3094 79.897 41.4329 80.3237 41.635C80.7728 41.8371 81.2107 42.0617 81.6374 42.3087C82.064 42.5557 82.3784 42.7915 82.5805 43.0161Z" fill="#262626"/>
<path d="M101.352 54.4013L104.485 64.9108L102.767 66.0561C102.138 65.9438 101.464 65.6968 100.746 65.315C100.027 64.9332 99.376 64.4504 98.7921 63.8666L98.2868 58.915L90.5395 58.8813L88.5184 65.5171H86.5311C86.0595 65.068 85.6328 64.5403 85.2511 63.9339C84.8693 63.3052 84.5661 62.5866 84.3416 61.7782L88.35 54.1655L91.4489 45.5424L87.9121 45.7782C87.5977 45.2392 87.4181 44.6104 87.3732 43.8918C87.3507 43.1732 87.4181 42.5332 87.5753 41.9718H94.4805C94.9072 42.1964 95.3788 42.522 95.8953 42.9487C96.4342 43.3529 96.9507 43.8132 97.4447 44.3297C97.9612 44.8238 98.3991 45.3403 98.7584 45.8792L101.352 54.4013ZM91.6511 55.3445L97.8826 55.2771L97.8489 54.9066L94.9184 45.7445L91.6511 55.3445Z" fill="#262626"/>
<path d="M125.203 43.0161L124.9 54.6371L124.933 65.5845L122.98 66.0561C122.396 65.7641 121.801 65.3711 121.194 64.8771C120.588 64.3606 120.094 63.7431 119.712 63.0245L120.15 60.5992L112.336 47.6645L112.133 54.6371L112.167 65.5845L110.213 66.0561C109.63 65.7641 109.034 65.3711 108.428 64.8771C107.822 64.3606 107.328 63.7431 106.946 63.0245L108.597 54.1992L108.327 45.6097L105.632 45.7108C105.318 45.1718 105.138 44.5543 105.093 43.8582C105.071 43.1396 105.138 42.4996 105.296 41.9382H110.18C110.517 42.0954 110.921 42.3424 111.392 42.6792C111.886 43.0161 112.38 43.3754 112.874 43.7571C113.391 44.1389 113.829 44.4982 114.188 44.835L121.026 55.9508L121.363 54.1992L120.959 41.9382L121.936 41.2645C122.183 41.3094 122.519 41.4329 122.946 41.635C123.395 41.8371 123.833 42.0617 124.26 42.3087C124.686 42.5557 125.001 42.7915 125.203 43.0161Z" fill="#262626"/>
<path d="M143.984 54.4013L147.116 64.9108L145.398 66.0561C144.77 65.9438 144.096 65.6968 143.377 65.315C142.659 64.9332 142.008 64.4504 141.424 63.8666L140.918 58.915L133.171 58.8813L131.15 65.5171H129.163C128.691 65.068 128.264 64.5403 127.883 63.9339C127.501 63.3052 127.198 62.5866 126.973 61.7782L130.982 54.1655L134.081 45.5424L130.544 45.7782C130.229 45.2392 130.05 44.6104 130.005 43.8918C129.982 43.1732 130.05 42.5332 130.207 41.9718H137.112C137.539 42.1964 138.01 42.522 138.527 42.9487C139.066 43.3529 139.582 43.8132 140.076 44.3297C140.593 44.8238 141.031 45.3403 141.39 45.8792L143.984 54.4013ZM134.283 55.3445L140.514 55.2771L140.481 54.9066L137.55 45.7445L134.283 55.3445Z" fill="#262626"/>
<path d="M163.174 45.3403L155.562 56.4224L155.595 65.5845L153.642 66.0561C153.058 65.7641 152.463 65.3711 151.856 64.8771C151.25 64.3606 150.756 63.7431 150.374 63.0245L151.519 56.8939L143.907 42.7466L144.951 41.2645C145.759 41.3318 146.59 41.4666 147.444 41.6687C148.297 41.8708 149.004 42.2638 149.566 42.8476L150.677 47.1592L153.743 53.6603L157.077 48.1361L157.717 41.9045L159.402 41.2645C160.12 41.6238 160.839 42.1964 161.557 42.9824C162.298 43.7683 162.837 44.5543 163.174 45.3403Z" fill="#262626"/>
<path d="M178.03 54.4013L181.162 64.9108L179.444 66.0561C178.816 65.9438 178.142 65.6968 177.423 65.315C176.705 64.9332 176.054 64.4504 175.47 63.8666L174.964 58.915L167.217 58.8813L165.196 65.5171H163.209C162.737 65.068 162.31 64.5403 161.929 63.9339C161.547 63.3052 161.244 62.5866 161.019 61.7782L165.028 54.1655L168.127 45.5424L164.59 45.7782C164.275 45.2392 164.096 44.6104 164.051 43.8918C164.028 43.1732 164.096 42.5332 164.253 41.9718H171.158C171.585 42.1964 172.056 42.522 172.573 42.9487C173.112 43.3529 173.628 43.8132 174.122 44.3297C174.639 44.8238 175.077 45.3403 175.436 45.8792L178.03 54.4013ZM168.329 55.3445L174.56 55.2771L174.527 54.9066L171.596 45.7445L168.329 55.3445Z" fill="#262626"/>
<path d="M22.6667 14.0491C22.5885 16.5157 22.8399 19.5174 22.4266 22.5192C22.0691 25.0672 21.438 27.6094 19.7289 29.4186C16.5956 32.7229 17.9193 36.7078 17.8634 40.4251C17.8355 42.4262 19.6395 41.1871 20.4941 41.129C25.599 40.7625 29.3858 42.944 31.8879 47.435C34.3957 51.9318 34.3007 56.4752 31.4579 60.8556C29.1512 64.4159 25.9006 66.481 21.9518 67.47C19.0736 68.1875 17.6326 70.1052 17.6289 73.2234C17.6289 74.381 17.6959 75.5677 17.4892 76.6963C17.048 79.1047 14.9703 80.5242 12.7362 80.1169C10.5915 79.7272 9.22871 77.8191 9.40744 75.4747C9.59175 73.1128 11.446 71.5247 13.7918 71.548C14.6128 71.5538 16.0594 73.0547 16.1432 70.6463C16.1991 68.9941 15.9589 68.1157 14.0152 67.7899C7.77097 66.7544 2.50969 63.8632 0.711254 57.0569C-1.18213 49.9074 0.722427 43.6013 6.21269 38.7322C8.82657 36.4111 11.6862 34.3924 14.4062 32.1935C16.065 30.8497 16.9977 25.8177 16.0091 24.0026C15.4395 22.9555 14.4788 23.0835 13.5572 23.0311C9.13934 22.7926 7.87708 21.3906 7.86591 16.7193C7.86033 13.4209 7.80447 10.1282 7.87708 6.82978C7.97203 2.27478 10.4128 0.0234582 15.1211 0.0118234C20.0864 -0.00562865 22.5048 2.15843 22.6611 6.83559C22.7337 9.06364 22.6723 11.2917 22.6723 14.0549L22.6667 14.0491ZM16.2493 33.8223C12.7418 36.859 9.7537 39.3198 7.41909 42.4728C1.45966 50.5065 4.6544 61.8795 13.7025 65.0849C15.3892 65.6841 16.2326 65.6608 16.1655 63.3629C16.0259 58.6218 16.1153 53.8748 16.1432 49.1336C16.1432 48.4123 15.9086 47.2663 16.8804 47.2372C17.9528 47.2081 17.6009 48.389 17.6065 49.0638C17.6456 53.9039 17.7071 58.7498 17.5953 63.584C17.5507 65.6026 18.2823 66.0447 20.0696 65.8702C25.1689 65.3699 28.5815 61.5188 29.3299 55.2186C29.9387 50.111 27.1237 45.9341 22.3875 44.9219C17.6456 43.9038 12.982 46.6962 11.6583 51.4315C11.3008 52.7171 11.1779 54.0726 10.9489 55.3931C9.58615 51.1581 10.9099 46.894 14.6184 43.6013C15.378 42.9265 16.3275 42.4786 16.2772 41.1406C16.1991 38.9474 16.2549 36.7427 16.2549 33.8223H16.2493ZM17.8858 28.5344C20.2874 25.457 21.0805 22.5657 21.1922 19.4011C21.2369 18.1038 21.1531 17.0393 19.4943 17.1905C18.9246 17.2429 18.2767 17.1556 18.2991 16.3703C18.3214 15.5267 19.0419 15.6605 19.5669 15.6663C20.5388 15.6838 21.1475 15.422 21.1922 14.2236C21.2425 12.7926 20.4382 12.6704 19.405 12.6995C18.8297 12.717 18.2153 12.6588 18.3158 11.8153C18.3885 11.2044 18.9023 11.1579 19.3826 11.1637C20.3768 11.1753 21.2425 11.123 21.1922 9.65701C21.1475 8.42955 20.4494 8.26666 19.539 8.21431C19.0084 8.18522 18.3047 8.26666 18.3885 7.38824C18.4499 6.74833 19.0363 6.78324 19.4776 6.78905C21.4938 6.80069 21.3095 5.64303 20.6616 4.31667C19.5446 2.01881 17.6065 1.4778 15.2887 1.50107C13.0099 1.52434 10.9992 1.9141 9.88776 4.2585C9.28456 5.52669 8.93269 6.74252 11.0104 6.78905C11.5242 6.80069 12.2559 6.74252 12.1554 7.62094C12.0827 8.23176 11.4851 8.18522 11.0495 8.21431C10.1614 8.27248 9.41302 8.35393 9.36834 9.61048C9.31249 11.0241 10.0777 11.1812 11.1221 11.1695C11.7029 11.1637 12.2838 11.315 12.1833 12.1236C12.0995 12.8042 11.5075 12.6588 11.0886 12.6937C10.2452 12.7577 9.40742 12.6646 9.37391 13.9968C9.3404 15.2999 9.9101 15.7071 11.0551 15.6722C11.5689 15.6547 12.2838 15.5965 12.2 16.4808C12.1442 17.0683 11.6304 17.1323 11.15 17.1905C10.4686 17.2719 9.55265 16.9462 9.43536 18.1271C9.32924 19.1742 9.74254 20.0119 10.4965 20.6867C11.4237 21.5128 12.5463 21.4546 13.6689 21.4895C16.9363 21.5826 17.6736 22.3912 17.7629 25.8642C17.7797 26.5332 17.8299 27.1964 17.897 28.5344H17.8858Z" fill="#F48014"/>
</svg>
