<svg width="62" height="78" viewBox="0 0 62 78" fill="none" xmlns="http://www.w3.org/2000/svg">
<path d="M27.4683 58.1688C28.1942 57.0668 28.2233 55.8373 28.502 54.6959C29.445 50.807 30.3296 46.903 31.1948 42.996C31.4119 42.0155 31.7521 41.4599 33.0094 41.3385C35.6212 41.0865 38.2038 40.5917 40.9322 40.1758C40.6405 41.2019 40.4072 41.9305 39.2666 42.1642C38.2167 42.3797 37.4909 43.1417 37.1118 44.0798C36.3308 46.0196 36.1915 48.0202 36.7391 50.039C36.8849 50.5824 37.1668 51.2685 37.7274 51.3504C39.2958 51.5751 39.1662 52.413 39.0106 53.5301C38.9037 54.2951 39.15 55.1391 39.3833 55.9102C40.1091 58.3297 39.9568 60.731 39.1726 63.0837C38.0093 66.5809 35.3393 68.4874 31.5318 69.0034C29.8727 69.2281 28.1942 69.1431 26.5254 68.9731C25.5306 68.8699 25.1547 68.5936 25.5014 67.5341C26.2921 65.1237 26.8462 62.6435 27.6336 60.2301C27.9738 59.1858 27.6174 58.9095 26.6226 58.7516C25.6958 58.6029 24.9311 58.275 24.7496 59.6684C24.4159 62.2246 23.8326 64.7473 23.4308 67.2973C23.3012 68.1261 22.9577 68.3507 22.1573 68.0897C21.6486 67.9227 21.1334 67.7709 20.6279 67.5948C12.4102 64.7564 10.3623 57.5889 15.939 51.2138C16.4153 50.6704 16.882 50.0967 17.219 49.4713C17.7536 48.4816 17.7212 47.2673 19.7076 47.5254C21.0037 47.6954 21.8495 46.1562 22.1573 45.0057C22.6693 43.0871 23.9655 42.4587 25.8514 42.4101C26.1203 42.404 26.3893 42.3615 26.655 42.3251C29.3996 41.9487 29.3899 41.9456 28.7742 44.5564C27.747 48.9279 26.7328 53.3024 25.6537 57.932C26.5189 57.4827 26.4249 56.8755 26.5319 56.4293C27.5623 52.0912 28.5506 47.7439 29.5519 43.3998C29.5973 43.2024 29.6232 42.996 29.701 42.8108C29.8792 42.3889 29.7658 41.5905 30.5629 41.8151C31.1656 41.9851 30.7735 42.5923 30.6828 42.9899C29.62 47.6316 28.5409 52.2703 27.4619 56.9089C27.3711 57.2945 27.1508 57.6739 27.4619 58.1657L27.4683 58.1688ZM32.2933 45.4186C33.0904 45.6493 32.5849 44.605 33.2071 44.8266C33.6737 44.9905 33.7515 45.4398 33.7417 45.8375C33.7288 46.3354 33.6283 46.8332 33.5408 47.328C33.3172 48.5697 32.9316 49.7961 33.1196 51.0742C33.2136 51.7147 33.5408 52.2096 34.2958 52.3462C34.8208 52.4403 35.2647 52.3431 35.5628 51.8999C35.7475 51.6237 35.7994 51.3019 35.5142 51.0742C35.1675 50.801 34.9212 51.0104 34.8013 51.3322C34.6879 51.6297 34.8694 52.158 34.2699 52.0547C33.7417 51.9637 33.6996 51.4658 33.745 51.0742C33.894 49.8235 34.0885 48.5758 34.2796 47.3311C34.3963 46.5782 34.5583 45.8193 34.0658 45.1302C33.4793 44.3075 32.8604 44.3985 32.2933 45.4216V45.4186ZM25.9745 43.3208C23.8391 44.9328 24.3251 47.58 23.1748 49.5836C25.2551 47.9473 24.5293 45.2091 25.9745 43.3208Z" fill="#F48014"/>
<path d="M37.7747 24.981C38.7695 24.6288 39.5504 24.3495 40.4545 24.0308C39.3657 22.6526 38.3482 21.3654 37.1104 19.802C36.7183 21.6477 36.4008 23.196 36.0605 24.7381C35.905 25.4364 36.4591 25.576 36.9387 25.8037C38.2996 26.4473 39.4889 27.3034 40.5614 28.3234C43.0954 30.7338 43.2348 33.5935 42.4182 36.6535C42.2659 37.2182 41.9094 37.4428 41.2841 37.5309C38.7241 37.886 36.1642 38.2685 33.6173 38.6996C32.4929 38.8909 32.2012 38.6146 32.4637 37.5521C33.277 34.2553 34.0158 30.9402 34.7676 27.6312C34.8259 27.3792 35.1111 27.0666 34.4954 26.7417C33.8149 29.6257 33.1442 32.449 32.4831 35.2753C32.2401 36.3105 32.0133 37.3517 31.7767 38.3869C31.6892 38.7694 31.5045 39.0882 31.025 38.9971C30.3801 38.8727 30.7528 38.4234 30.8143 38.1501C31.5985 34.6408 32.4118 31.1345 33.2122 27.6282C33.2965 27.2669 33.5978 26.8966 33.034 26.3107C32.4993 28.5632 32.0003 30.6518 31.5045 32.7404C31.0833 34.5163 30.5972 36.2801 30.2829 38.0743C30.1176 39.0153 29.6867 39.3462 28.7178 39.413C27.7003 39.4828 26.699 39.7318 25.688 39.8866C22.8851 40.3116 21.4463 39.0912 21.4301 36.3378C21.4204 34.8624 21.5695 33.4052 21.9097 31.9724C22.992 27.4126 25.9894 24.9658 30.9796 24.8019C32.4313 24.7533 32.9271 24.2858 33.1442 23.0502C33.3872 21.6599 33.8117 20.2938 34.2005 18.9277C34.5051 17.8621 34.8421 16.8907 34.1228 15.7674C33.5816 14.9265 33.9381 13.8701 34.9069 13.4056C35.8467 12.9533 36.1448 12.2277 36.1351 11.4475C36.1253 10.5156 36.4105 9.55929 36.3068 8.72446C36.1545 7.49497 34.7773 7.64069 33.8279 7.87748C32.7845 8.13855 32.603 7.6164 32.7488 6.98496C32.8947 6.34442 33.2867 5.9528 34.1066 6.62067C35.218 7.52836 36.7248 7.49497 37.0164 6.70871C37.2044 6.20173 37.6872 5.50654 37.2692 5.16957C36.5887 4.61706 35.5745 4.51385 34.6801 4.64742C34.2524 4.71117 33.8733 4.97832 33.5687 4.55635C33.3127 4.20116 33.29 3.77009 33.6464 3.43919C33.9802 3.12954 34.3982 2.96561 34.7417 3.42097C35.218 4.04634 35.973 3.96741 36.6276 4.10402C37.0424 4.18902 37.6807 4.54724 37.8719 3.89152C38.0242 3.36633 38.6334 2.7865 37.9853 2.21274C36.822 1.18361 38.2219 1.03486 38.6464 0.846642C39.2296 0.585566 39.8226 -0.765351 40.6716 0.60378C40.9697 1.08343 41.3132 1.5388 41.6308 2.00934C41.7701 2.21577 41.9872 2.54667 41.6373 2.63167C40.4189 2.92918 40.1596 3.98866 40.6068 4.59885C41.1836 5.38511 42.4182 5.56119 43.494 5.18172C44.0708 4.97832 44.3138 5.21207 44.4791 5.61583C44.6476 6.03173 44.5342 6.42031 44.1129 6.67531C43.7468 6.89996 43.4065 6.91514 43.1732 6.49317C43.1473 6.44763 43.1311 6.38995 43.0922 6.36567C42.2529 5.87691 41.2225 5.51869 40.3994 5.86173C39.9004 6.0712 39.6509 7.29157 40.0106 7.79248C40.5614 8.55749 41.7247 8.66981 42.6223 8.39356C43.4778 8.12945 43.7014 8.38749 43.8116 9.04018C43.8634 9.36197 43.7014 9.63519 43.3968 9.80215C43.0954 9.96609 42.7066 10.0359 42.5316 9.7293C42.1849 9.11607 41.5303 9.20411 40.9957 9.04018C40.1175 8.77303 39.4759 8.93392 39.5634 9.97216C39.6541 11.0438 38.6399 11.6934 38.4519 12.7104C38.2575 13.7699 38.4519 14.5228 39.1292 15.3485C41.3003 17.9957 43.4098 20.6854 45.5225 23.372C47.039 25.3028 46.5821 26.5687 44.2199 27.4096C42.6807 27.956 41.3456 28.3021 40.1661 26.7296C39.6671 26.0648 38.7436 25.6762 37.7747 24.9962V24.981Z" fill="#F48014"/>
<path d="M16.3993 45.0086C16.1628 45.5611 16.2762 45.9072 16.4188 46.229C17.1122 47.7924 16.5678 49.0978 15.4564 50.2666C13.8362 51.9696 12.8932 53.9733 12.2808 56.156C12.0831 56.8603 12.2613 57.8135 11.0527 58.026C10.7059 58.0867 10.7902 58.6392 10.7481 58.9853C10.2004 63.3507 9.65606 67.7162 9.10843 72.0816C8.83948 74.2249 7.2614 75.597 5.29448 75.4027C3.24979 75.1993 1.99576 73.6572 2.25175 71.4866C2.90307 65.9615 3.59003 60.4425 4.30292 54.9234C4.52651 53.2022 5.54075 52.1579 7.63729 51.9696C9.84724 51.7723 11.2374 51.1743 11.0624 48.8094C11.0203 48.2326 11.2795 47.6133 11.5031 47.0487C12.1252 45.464 12.8284 44.0797 15.0967 44.019C17.0215 43.9704 18.9366 43.5211 20.8452 43.2023C21.7622 43.0506 21.9469 43.3025 21.5418 44.0524C21.3733 44.3681 21.2502 44.7051 21.0752 45.0177C19.9864 46.9728 19.3513 47.1094 17.5237 45.7888C17.19 45.549 16.8465 45.3183 16.3961 45.0056L16.3993 45.0086Z" fill="#F48014"/>
<path d="M12.2634 33.2014C10.2641 34.3094 8.45918 35.3082 6.45985 36.4163C8.04441 37.8097 9.51555 39.1849 10.5946 40.8485C11.0969 41.6226 11.6186 42.4119 11.9329 43.2589C12.3347 44.3426 11.9232 45.2777 10.7955 45.7907C9.65813 46.3068 8.53371 46.0518 7.9958 45.0348C6.38857 41.9899 3.9291 39.7556 0.977101 37.8734C-0.244529 37.0932 -0.361183 35.4205 0.857207 34.7587C5.48774 32.2421 9.67109 28.9118 15.0599 27.7309C15.8408 27.5609 16.4889 27.5731 17.1758 28.0406C17.9147 28.5475 18.796 28.9452 19.7066 28.9665C21.3398 29.0029 21.761 29.4461 21.1615 31.0035C20.3093 33.2075 20.4098 35.5693 20.4422 37.9008C20.4519 38.6354 20.8278 38.9784 21.4111 39.3033C21.7351 39.4824 22.0526 39.7951 21.9911 40.1563C21.9133 40.6178 21.4046 40.4933 21.0578 40.5449C18.984 40.8606 16.9004 41.1156 14.8395 41.4981C13.7507 41.7015 13.5822 41.3828 13.6471 40.4417C13.8188 37.9827 13.1156 35.6512 12.2634 33.2014Z" fill="#F48014"/>
<path d="M13.9844 20.9339C14.1367 18.6024 15.4847 16.4137 18.2974 15.2085C21.0323 14.0367 23.7056 14.3372 26.0387 16.1222C28.4204 17.9467 29.2175 20.3602 28.5662 23.1865C28.4074 23.8816 28.0413 24.2915 27.2701 24.5556C25.3777 25.2083 23.6149 26.1129 22.5618 27.8281C22.1794 28.4505 21.635 28.4171 21.042 28.408C17.2119 28.3655 13.9682 25.1749 13.9844 20.9309V20.9339Z" fill="#F48014"/>
<path d="M11.835 61.291C13.6626 65.8932 17.5413 68.076 22.1168 68.932C24.4077 69.3601 26.6306 70.3103 29.116 70.1221C31.0959 69.9733 30.1205 71.7644 30.4057 72.6387C30.7492 73.6921 29.615 73.2064 29.1063 73.3036C28.6915 73.3794 28.2476 73.3127 27.8166 73.3218C26.5269 73.3461 25.0072 72.9939 24.0156 73.5161C23.063 74.017 23.3125 75.6168 22.8945 76.6884C22.7681 77.0102 22.875 77.6174 22.1751 77.4565C21.5724 77.3168 21.7506 76.8463 21.7798 76.4577C21.7862 76.3575 21.8057 76.2574 21.8219 76.1572C21.9807 75.2647 22.5866 74.0443 22.1848 73.5586C21.6339 72.8968 20.2794 73.343 19.2717 73.3309C16.6826 73.2944 14.0968 73.3005 11.5077 73.3309C10.7365 73.34 10.2958 73.2459 10.4189 72.3534C10.9212 68.6679 11.3716 64.9795 11.8382 61.291H11.835Z" fill="#F48014"/>
<path d="M13.5515 43.6226C13.1076 43.7015 12.7187 43.5224 12.6961 42.9274C12.6701 42.1867 13.3312 42.381 13.7524 42.3172C23.7069 40.8054 33.6647 39.3027 43.6224 37.8C45.2199 37.5602 46.8174 37.3204 48.4182 37.0957C49.0598 37.0046 49.9865 36.5341 50.1324 37.5237C50.249 38.3313 49.2737 38.2766 48.6839 38.3677C43.3632 39.1873 38.036 39.9797 32.7087 40.7811C26.6913 41.6858 20.6739 42.5904 14.6565 43.4921C14.3357 43.5406 14.0149 43.5649 13.5515 43.6196V43.6226Z" fill="#F48014"/>
<path d="M38.1162 67.0117C38.2167 69.1428 38.8291 70.937 38.5893 72.8009C38.4078 74.2004 36.9756 75.3115 35.4364 75.4086C33.9264 75.5028 32.4228 74.5799 31.9854 73.1561C31.7359 72.3395 31.7002 71.4652 31.5414 70.6212C31.4345 70.0505 31.8201 69.9412 32.2738 69.8623C34.3865 69.498 36.2238 68.5994 38.113 67.0117H38.1162Z" fill="#F48014"/>
<path d="M54.3062 44.723C54.3062 45.5306 54.3581 46.3441 54.29 47.1456C54.2252 47.9076 53.6517 48.2992 52.8805 48.369C52.4203 48.4115 52.0023 48.2142 51.9278 47.7376C51.8079 46.9847 52.3426 46.5809 52.9971 46.4322C54.2706 46.1468 53.8493 45.2057 53.7003 44.6107C53.4735 43.703 52.7509 44.5379 52.2551 44.4802C52.1546 44.468 52.0412 44.5075 51.9408 44.5379C48.6161 45.5245 49.2901 44.6441 49.1961 47.8954C49.1735 48.6908 49.3517 49.5621 48.412 50.0539C47.8449 50.3514 47.2389 50.4303 46.8501 49.8353C46.4936 49.2919 46.8371 48.6847 47.3297 48.5785C49.06 48.199 48.5934 46.9725 48.6031 45.9495C48.6291 43.0898 48.6129 43.0898 51.5746 42.3309C53.4281 41.8553 54.3549 42.5019 54.3549 44.2707C54.3549 44.4225 54.3549 44.5743 54.3549 44.7261C54.3419 44.7261 54.3289 44.7261 54.316 44.7261L54.3062 44.723ZM53.7554 42.9532C53.7683 42.6678 53.6549 42.3855 53.3309 42.4644C52.038 42.7832 50.758 43.1384 49.4845 43.5209C49.2091 43.6028 49.2026 43.9216 49.2447 44.1796C49.2998 44.5227 49.572 44.553 49.841 44.4863C51.0302 44.1857 52.2162 43.873 53.3989 43.5512C53.7132 43.4662 53.7554 43.2143 53.7521 42.9532H53.7554Z" fill="#F48014"/>
<path d="M59.4919 46.2656C59.8775 46.5996 60.1626 46.7696 60.3409 47.0124C60.6779 47.4678 61.7245 47.741 61.2352 48.3937C60.7038 49.1041 60.2825 48.1903 59.8678 47.9414C59.278 47.5892 59.1095 47.9687 58.8924 48.3148C58.2929 49.271 57.7064 50.2334 57.1134 51.1896C56.8704 51.5813 56.6468 51.9729 56.151 52.1641C55.584 52.3827 55.0817 52.2795 54.6475 51.9395C54.3397 51.7027 54.2198 51.3688 54.4433 50.9954C54.722 50.5278 55.2308 50.3336 55.6747 50.4853C56.7667 50.8587 57.0713 50.1878 57.4699 49.5048C58.092 48.4483 58.766 47.4223 59.4951 46.2656H59.4919Z" fill="#F48014"/>
<path d="M44.15 49.6247C42.1345 50.0952 42.8085 51.2033 43.1876 52.2385C43.3626 52.7151 43.557 53.1917 43.6672 53.6835C43.7806 54.1905 43.5019 54.573 43.0158 54.7794C42.7112 54.91 42.3516 54.9191 42.1604 54.6003C41.9141 54.1844 42.0858 53.814 42.4423 53.5256C43.5959 52.5937 42.2544 51.8104 42.2673 50.9452C42.277 50.4626 41.603 49.907 42.0729 49.5579C42.5881 49.1754 43.3431 49.2968 44.1467 49.6247H44.15Z" fill="#F48014"/>
<path d="M49.0553 53.5625C46.8454 53.0343 47.0592 54.5006 46.8097 55.5753C46.6736 56.1581 46.7546 56.8169 46.2653 57.2844C45.8894 57.6426 45.3775 57.7428 44.9562 57.4119C44.522 57.0719 44.6937 56.5042 45.115 56.4374C46.8032 56.1612 46.4047 54.8376 46.7125 53.8722C46.8583 53.4108 46.7384 52.6427 47.2407 52.5729C47.8596 52.4879 48.4818 52.9341 49.0585 53.5656L49.0553 53.5625Z" fill="#F48014"/>
<path d="M5.16479 43.6154C6.11099 43.4241 6.50956 43.752 6.57437 44.3045C6.65214 44.9542 5.99758 44.6901 5.6541 44.8115C5.60549 44.8297 5.5504 44.8327 5.49856 44.8297C4.80187 44.8085 3.67745 45.5826 3.56728 44.4138C3.47331 43.409 4.79215 43.84 5.16156 43.6124L5.16479 43.6154Z" fill="#F48014"/>
<path d="M15.3464 26.793C14.6433 27.1178 13.6809 27.5307 13.3795 27.13C12.8708 26.45 13.3665 25.5726 13.8007 24.668C14.3711 25.4512 14.8377 26.0948 15.3432 26.793H15.3464Z" fill="#F48014"/>
</svg>
