<svg width="14" height="21" viewBox="0 0 14 21" fill="none" xmlns="http://www.w3.org/2000/svg">
<path d="M7 9.89182C6.33696 9.89182 5.70107 9.62785 5.23223 9.15799C4.76339 8.68812 4.5 8.05085 4.5 7.38636C4.5 6.72188 4.76339 6.0846 5.23223 5.61474C5.70107 5.14488 6.33696 4.88091 7 4.88091C7.66304 4.88091 8.29893 5.14488 8.76777 5.61474C9.23661 6.0846 9.5 6.72188 9.5 7.38636C9.5 7.71538 9.43534 8.04118 9.3097 8.34516C9.18406 8.64913 8.99991 8.92533 8.76777 9.15799C8.53562 9.39064 8.26002 9.57519 7.95671 9.7011C7.65339 9.82701 7.3283 9.89182 7 9.89182ZM7 0.371094C5.14348 0.371094 3.36301 1.1102 2.05025 2.42582C0.737498 3.74144 0 5.5258 0 7.38636C0 12.6478 7 20.4147 7 20.4147C7 20.4147 14 12.6478 14 7.38636C14 5.5258 13.2625 3.74144 11.9497 2.42582C10.637 1.1102 8.85652 0.371094 7 0.371094Z" fill="#495E57"/>
</svg>
