<svg width="7" height="12" viewBox="0 0 7 12" fill="none" xmlns="http://www.w3.org/2000/svg">
<path d="M6.10959 5.5103C6.10959 5.3277 6.00121 5.22004 5.89061 5.1128C4.56437 3.82684 3.23813 2.54088 1.91189 1.25492C1.54649 0.90049 1.18197 0.545194 0.814799 0.19205C0.571492 -0.0422306 0.310049 -0.0633335 0.119827 0.131757C-0.0615466 0.317803 -0.0372159 0.571895 0.194146 0.796269C1.7491 2.30574 3.30272 3.81737 4.86652 5.31823C5.03772 5.48274 5.01427 5.55983 4.85811 5.71013C3.32263 7.18774 1.79466 8.67352 0.265369 10.1576C0.202994 10.2183 0.138407 10.2786 0.0870915 10.3479C-0.0429669 10.5232 -0.0230599 10.7515 0.12779 10.8979C0.28793 11.0534 0.52637 11.0663 0.709956 10.9263C0.755963 10.891 0.796662 10.8488 0.838687 10.8083C2.52016 9.17826 4.20118 7.54777 5.88265 5.91771C6.00431 5.79971 6.12375 5.68214 6.11003 5.51074L6.10959 5.5103Z" fill="white"/>
</svg>
