<svg width="24" height="23" viewBox="0 0 24 23" fill="none" xmlns="http://www.w3.org/2000/svg">
<path d="M6.20461 22.8375C3.37567 22.8375 0.314408 20.0463 0.0789261 17.251C-0.0693014 15.4946 0.789577 14.2546 2.49682 13.7686C3.05189 13.6104 3.61221 13.4753 4.16622 13.313C4.84954 13.113 5.26058 12.6668 5.38673 11.9546C5.49396 11.3545 5.61486 10.7554 5.86401 10.1919C6.6083 8.50886 8.23565 7.57778 9.81043 7.92969C10.1121 7.99672 10.3991 8.07736 10.4738 8.42927C10.5421 8.75289 10.3413 8.94351 10.1153 9.12993C9.6969 9.47451 9.28796 9.8306 8.87902 10.1856C8.56784 10.4559 8.52054 10.7858 8.73394 11.1241C8.92843 11.433 9.18073 11.5629 9.50452 11.2529C12.1432 8.72357 14.7829 6.1953 17.4289 3.67436C17.7632 3.35597 17.6497 2.9496 17.6707 2.59141C17.697 2.15153 17.8873 1.95358 18.2689 1.79648C19.5609 1.26234 20.8402 0.694685 22.1259 0.145881C22.8692 -0.171462 23.4936 0.0390522 23.7438 0.678975C24.0003 1.3367 23.6555 1.91588 22.8545 2.16934C22.7041 2.21647 22.5548 2.27512 22.4014 2.2992C21.5814 2.42593 21.081 2.85743 20.9506 3.70473C20.8981 4.04826 20.6794 4.35617 20.3125 4.38655C19.7291 4.43472 19.3979 4.78558 19.0279 5.17833C17.2187 7.10124 15.3811 8.99692 13.5529 10.9031C12.8507 11.6352 12.1474 12.3652 11.4472 13.0993C11.1624 13.3978 11.1991 13.8932 11.5292 14.1949C11.8614 14.4975 12.0601 14.176 12.2904 14.0189C12.3471 13.9801 12.3965 13.9267 12.4396 13.8723C12.7613 13.4722 13.1377 13.2208 13.6643 13.4785C14.1027 13.6921 14.4034 14.3457 14.3203 14.8631C14.2394 15.3647 13.9724 15.7711 13.636 16.1366C13.1082 16.7095 12.4817 17.1578 11.7742 17.4772C10.663 17.9789 9.9492 18.7948 9.64539 19.9741C9.50557 20.5166 9.31108 21.0402 8.97048 21.4948C8.2798 22.4144 7.34628 22.8417 6.20356 22.8375H6.20461ZM11.4714 15.5522C10.4654 15.8528 9.89348 14.9186 9.04091 15.0275C8.98309 15.0348 8.90635 14.9259 8.84432 14.8651C8.48374 14.5091 8.12737 14.1498 7.76678 13.7958C7.50397 13.5371 7.43038 13.2627 7.70686 12.9758C7.83932 12.8386 7.8635 12.7275 7.74471 12.5704C7.60489 12.3851 7.43879 12.274 7.20752 12.3484C6.97203 12.4249 6.88268 12.6144 6.93629 12.8448C7.01408 13.18 7.04983 13.5214 6.84168 13.8031C6.31605 14.5132 5.66637 15.0442 4.72444 15.0767C4.53206 15.083 4.33758 15.06 4.14835 15.084C3.70156 15.1416 3.27686 15.6747 3.29893 16.1377C3.32627 16.7106 3.71733 16.2916 3.91707 16.3314C4.44901 16.4382 6.28346 18.1171 6.24877 18.6555C6.21302 19.2043 6.30553 19.6944 6.48425 20.194C6.53786 20.3448 6.43694 20.5784 6.67558 20.6245C6.90055 20.6684 7.01513 20.4736 7.12552 20.3218C7.50082 19.8044 7.66166 19.1927 7.86455 18.602C8.25562 17.4636 8.99465 16.7074 10.1847 16.4037C10.642 16.2864 11.0709 16.0937 11.4704 15.5522H11.4714ZM3.80249 16.8687C3.59434 16.8959 3.42403 16.9986 3.32311 17.2039C3.20747 17.4405 3.2737 17.6469 3.44611 17.8218C3.88554 18.2679 4.32917 18.7099 4.7749 19.1498C5.03877 19.4106 5.32786 19.4598 5.59593 19.1739C5.86295 18.8901 5.78621 18.6094 5.5255 18.3528C5.10395 17.938 4.68765 17.5181 4.26819 17.1012C4.14309 16.9766 4.00538 16.8718 3.80249 16.8687ZM18.005 3.55287C17.9104 3.54763 17.8336 3.58429 17.7821 3.66074C17.7022 3.78119 17.7359 3.8943 17.8284 3.98961C18.0828 4.25039 18.3393 4.50909 18.599 4.76568C18.7146 4.87984 18.8502 4.98667 19.0068 4.84947C19.1803 4.69656 19.1046 4.54051 18.969 4.40226C18.7735 4.20431 18.579 4.00636 18.3782 3.8147C18.2678 3.70997 18.1816 3.56543 18.005 3.55287ZM13.0189 8.46173C12.8013 8.56018 12.693 8.70995 12.8633 8.90371C13.1261 9.20325 13.4215 9.4766 13.7085 9.75519C13.822 9.86621 13.9608 9.88402 14.0796 9.76462C14.1994 9.64418 14.1753 9.50802 14.0649 9.39491C13.7852 9.10899 13.5004 8.82725 13.2123 8.55076C13.1671 8.50677 13.0914 8.4942 13.0189 8.46278V8.46173ZM12.4817 11.2707C12.4817 11.0623 11.5366 10.1155 11.3642 10.1469C11.1161 10.1919 11.0225 10.3595 11.1949 10.5554C11.4693 10.8675 11.7647 11.166 12.0822 11.4341C12.2819 11.6027 12.4323 11.4864 12.4817 11.2717V11.2707ZM17.4468 6.30841C17.4426 6.09685 16.5091 5.17624 16.3293 5.20138C16.1464 5.22651 16.0076 5.36371 16.1201 5.52186C16.3997 5.91356 16.733 6.27385 17.1472 6.5273C17.3122 6.62889 17.4237 6.4676 17.4468 6.30841ZM15.811 7.9454C15.8026 7.76421 14.8365 6.81742 14.6809 6.83417C14.5148 6.85198 14.4412 6.95776 14.4549 7.1201C14.4665 7.26149 15.339 8.15277 15.4914 8.17686C15.6796 8.20514 15.7879 8.12135 15.811 7.94644V7.9454ZM10.5726 13.1695C10.8291 13.0868 10.8995 12.9108 10.7482 12.7328C10.4927 12.4301 10.2005 12.1567 9.91135 11.8834C9.80413 11.7828 9.658 11.7608 9.535 11.8761C9.4057 11.9975 9.44354 12.1306 9.55077 12.2405C9.8283 12.5254 10.1121 12.804 10.3981 13.0805C10.4443 13.1255 10.5169 13.1423 10.5715 13.1695H10.5726ZM5.34679 20.7103C5.33838 20.4852 5.20907 20.3312 4.96413 20.3343C4.75282 20.3375 4.60355 20.4726 4.59408 20.6946C4.58252 20.9481 4.736 21.0863 4.97674 21.0874C5.19225 21.0874 5.32997 20.9617 5.34679 20.7093V20.7103Z" fill="#F48014"/>
</svg>
