<svg width="7" height="12" viewBox="0 0 7 12" fill="none" xmlns="http://www.w3.org/2000/svg">
<path d="M0.890409 5.5103C0.890409 5.3277 0.998791 5.22004 1.10939 5.1128C2.43563 3.82684 3.76187 2.54088 5.08811 1.25492C5.45351 0.90049 5.81803 0.545194 6.1852 0.19205C6.42851 -0.0422306 6.68995 -0.0633335 6.88017 0.131757C7.06155 0.317803 7.03722 0.571895 6.80585 0.796269C5.2509 2.30574 3.69728 3.81737 2.13348 5.31823C1.96228 5.48274 1.98573 5.55983 2.14189 5.71013C3.67737 7.18774 5.20534 8.67352 6.73463 10.1576C6.79701 10.2183 6.86159 10.2786 6.91291 10.3479C7.04297 10.5232 7.02306 10.7515 6.87221 10.8979C6.71207 11.0534 6.47363 11.0663 6.29004 10.9263C6.24404 10.891 6.20334 10.8488 6.16131 10.8083C4.47984 9.17826 2.79882 7.54777 1.11735 5.91771C0.995695 5.79971 0.876253 5.68214 0.889967 5.51074L0.890409 5.5103Z" fill="#ffffff"/>
</svg>
