<svg width="92" height="69" viewBox="0 0 92 69" fill="none" xmlns="http://www.w3.org/2000/svg">
<path d="M5.50671 12.8222C8.0986 9.22308 11.9411 6.46587 17.0853 4.58916C19.5162 3.70289 22.0179 3.05453 24.5712 2.61403L24.5717 2.61395C28.9228 1.86098 33.3188 1.55698 37.7631 1.53422C38.0614 1.53282 38.2421 1.55681 38.3471 1.58475C38.3639 1.5892 38.3773 1.59338 38.3879 1.59703C38.3904 1.60658 38.3932 1.61842 38.3961 1.63283C38.4161 1.73466 38.4276 1.90745 38.4091 2.19086C38.2928 3.94158 38.3043 5.69753 38.3577 7.42485L38.3578 7.42578C38.3635 7.60383 38.3552 7.72059 38.3436 7.79408C38.2734 7.80595 38.16 7.8157 37.9865 7.81148L37.9834 7.81141C35.3811 7.75632 32.8313 8.16634 30.3734 8.87834L30.3728 8.87852C25.2612 10.3628 22.1299 13.3777 20.3998 16.9975C18.6879 20.5793 18.3784 24.6834 18.7418 28.3643C18.7807 28.7587 18.8869 29.152 19.1283 29.4828C19.3868 29.8371 19.7301 30.0244 20.0598 30.11C20.3576 30.1872 20.645 30.1813 20.8291 30.173C20.9328 30.1684 21.0048 30.1636 21.0633 30.1596C21.1415 30.1544 21.1956 30.1508 21.269 30.1513C22.2947 30.1633 23.3215 30.1769 24.3493 30.1904C28.5644 30.2459 32.7951 30.3016 37.0224 30.2538C37.4069 30.2495 37.6667 30.2676 37.8472 30.3037C37.9331 30.3208 37.9866 30.3394 38.0181 30.3534C38.047 30.3663 38.0567 30.3749 38.0577 30.3758L38.0578 30.3759L38.0578 30.3759C38.0582 30.3762 38.0633 30.3804 38.0726 30.3967C38.0834 30.4157 38.1025 30.4559 38.1221 30.5297C38.1637 30.6866 38.1937 30.9408 38.1872 31.3477L38.1872 31.3479C38.0023 42.9848 37.92 54.6249 37.8874 66.2599C37.8854 66.8106 37.8105 66.9836 37.7912 67.0195C37.7755 67.0273 37.74 67.0417 37.6727 67.0565C37.5353 67.0866 37.3238 67.1056 36.9947 67.1021C25.2661 66.9513 13.5396 66.8467 1.80838 66.8165C1.46844 66.8152 1.26576 66.7866 1.14796 66.7535C1.11401 66.744 1.09201 66.7355 1.07872 66.7295C1.07126 66.7111 1.05966 66.676 1.04818 66.6167C1.0207 66.4749 1.0062 66.2605 1.01306 65.929L1.01309 65.9277C1.10823 61.0283 1.14052 56.1257 1.17275 51.2307C1.18226 49.7864 1.19177 48.3428 1.20288 46.9001L2.62094 46.9119L1.2213 45.4835C1.23596 43.6082 1.24486 41.7356 1.25374 39.8646C1.27505 35.3786 1.29631 30.9022 1.39686 26.4225L1.39686 26.4225C1.51964 20.9363 2.91516 16.4208 5.50671 12.8222ZM38.421 1.611C38.4209 1.61102 38.4201 1.61061 38.4187 1.60966C38.4203 1.61052 38.421 1.61098 38.421 1.611ZM38.3773 1.56476C38.3768 1.56374 38.3765 1.56317 38.3765 1.56313L38.3773 1.56476ZM37.8014 67.0136C37.8015 67.0136 37.8007 67.0142 37.799 67.0153C37.8005 67.0141 37.8014 67.0136 37.8014 67.0136ZM1.06164 66.7204C1.06173 66.7203 1.06294 66.721 1.06501 66.7226C1.06258 66.7212 1.06155 66.7204 1.06164 66.7204ZM1.0856 66.7446C1.08647 66.7459 1.08687 66.7466 1.08685 66.7467C1.08683 66.7467 1.08639 66.746 1.0856 66.7446Z" stroke="#F48014" stroke-width="2"/>
<path d="M53.3092 25.5284L53.3092 25.5285C53.1103 28.8029 53.0723 32.085 53.0616 35.2358C53.0595 35.8611 53.0585 36.482 53.0575 37.0968C53.0534 39.5643 53.0495 41.9345 52.9762 44.1072C52.9581 46.2922 52.9427 48.3926 52.9278 50.4309C52.8864 56.075 52.8485 61.242 52.7668 66.4052L52.7667 66.4057C52.7617 66.7127 52.7743 66.9148 52.7996 67.0522C52.8103 67.1101 52.8212 67.1451 52.8285 67.1643C52.8804 67.1877 53.0489 67.2421 53.4773 67.2437L53.3092 25.5284ZM53.3092 25.5284C53.6231 20.3517 55.1044 16.1333 57.6536 12.7806C60.2043 9.42584 63.8753 6.87046 68.678 5.10711L68.6782 5.10703M53.3092 25.5284L68.6782 5.10703M68.6782 5.10703C75.5189 2.59356 82.69 1.95851 90.0363 1.99134C90.0805 1.99174 90.1193 1.99307 90.1533 1.99508C90.1535 2.02062 90.1531 2.04902 90.1521 2.08053L90.152 2.08124M68.6782 5.10703L90.152 2.08124M90.152 2.08124C90.0904 3.96976 90.038 5.89567 90.116 7.82304L90.152 2.08124ZM77.2991 11.5518L77.2995 11.5515C81.0792 9.0414 85.3551 8.33314 89.6096 8.25625M77.2991 11.5518L90.116 7.82328C90.1237 8.01649 90.1148 8.13846 90.1032 8.21144C90.0089 8.23313 89.8558 8.25138 89.6096 8.25625M77.2991 11.5518C72.6992 14.6093 70.7902 19.1846 70.5067 24.3674L70.5067 24.3678M77.2991 11.5518L70.5067 24.3678M89.6096 8.25625L89.6277 9.25609L89.6081 8.25628C89.6086 8.25627 89.6091 8.25626 89.6096 8.25625ZM70.5067 24.3678C70.4379 25.6353 70.3845 26.6697 70.4353 27.4679C70.4855 28.2556 70.6454 29.0405 71.2025 29.6288C71.7593 30.2167 72.5326 30.4178 73.3077 30.5119C74.0816 30.6058 75.087 30.6142 76.3075 30.6243L76.3608 30.6247C77.5549 30.6347 78.7511 30.6476 79.9487 30.6605C83.1137 30.6946 86.2883 30.7288 89.4576 30.7088L89.4583 30.7087M70.5067 24.3678L89.4583 30.7087M89.4583 30.7087C89.6747 30.7072 89.809 30.7213 89.8891 30.7375L89.4583 30.7087ZM89.021 67.5287L89.0236 67.5288C89.2936 67.5326 89.4589 67.5183 89.5606 67.4972C89.567 67.4959 89.5728 67.4946 89.5782 67.4933C89.6006 67.41 89.6232 67.2567 89.6247 66.9912C89.6247 66.991 89.6247 66.9909 89.6247 66.9907L89.021 67.5287ZM89.021 67.5287C77.1764 67.3912 65.326 67.2784 53.4776 67.2437L89.021 67.5287ZM52.8091 67.1537C52.8092 67.1537 52.8106 67.1545 52.8129 67.1563C52.8102 67.1547 52.809 67.1538 52.8091 67.1537ZM89.6303 67.4776C89.6303 67.4776 89.63 67.4778 89.6292 67.4781L89.6303 67.4776Z" stroke="#F48014" stroke-width="2"/>
</svg>
