<svg width="14" height="13" viewBox="0 0 14 13" fill="none" xmlns="http://www.w3.org/2000/svg">
<path d="M4.33416 10.5676C5.24283 9.49736 6.13595 8.44678 7.02809 7.39621C8.84834 5.25189 10.6715 3.10954 12.4869 0.960319C12.7367 0.664078 13.0117 0.475739 13.4092 0.562061C13.7075 0.626803 13.8854 0.832799 13.9689 1.11531C14.0827 1.49787 13.864 1.76959 13.6385 2.03444C12.4597 3.42246 11.2818 4.81145 10.102 6.19849C8.42754 8.1682 6.75112 10.1359 5.07665 12.1066C4.55768 12.7168 4.12425 12.7236 3.59945 12.1096C2.4799 10.7991 1.35937 9.48951 0.251478 8.16918C-0.101299 7.74836 -0.074087 7.304 0.277718 6.99893C0.613001 6.70857 1.0756 6.76939 1.4342 7.15588C1.53333 7.2628 1.62468 7.37757 1.71992 7.4894C2.58291 8.50466 3.44493 9.5209 4.33416 10.5676Z" fill="black"/>
</svg>
