<svg width="71" height="63" viewBox="0 0 71 63" fill="none" xmlns="http://www.w3.org/2000/svg">
<path d="M8.81351 19.5479C7.81512 20.4189 7.38881 21.436 6.92124 22.4063C5.10049 26.1633 4.27537 30.2014 3.64278 34.2918C3.61528 34.4738 3.60702 34.6584 3.57127 34.8376C3.35124 35.9512 2.68564 36.5659 1.54148 36.4143C0.383568 36.2599 -0.125255 35.4413 0.0260163 34.3415C0.746619 29.1402 1.81652 24.0298 4.44314 19.3991C5.9146 16.8026 7.76837 14.5561 10.648 13.4039C11.5859 13.0291 12.4578 12.6928 12.4935 14.3135C12.5045 14.8703 12.8318 15.4574 13.1261 15.9646C14.6058 18.4922 17.4745 18.495 18.9515 15.9811C19.2045 15.5539 19.3915 15.0715 19.5235 14.5919C20.0214 12.8003 20.0516 12.7617 21.8119 13.5528C24.2047 14.6278 25.8687 16.5049 27.2136 18.6852C29.6422 22.613 30.7946 26.9929 31.6142 31.4803C31.7793 32.3817 31.9058 33.2913 32.0323 34.2009C32.1891 35.3062 31.793 36.1138 30.6736 36.4005C29.6175 36.6679 28.7401 36.0614 28.5338 34.8321C28.0387 31.891 27.5574 28.95 26.6278 26.1081C25.8907 23.8562 25.0051 21.6731 23.3273 19.8539C23.9269 22.9906 24.521 26.1274 25.1288 29.2614C25.9952 33.7185 26.8203 38.1811 27.7747 42.6189C28.0387 43.8538 27.6399 44.3637 26.5673 44.7523C25.4011 45.1741 24.2405 45.6068 23.0138 45.7667C22.1887 45.8742 21.9824 46.2408 21.9906 47.0264C22.0264 51.0204 22.0126 55.0144 22.0044 59.0111C22.0016 61.1391 20.9592 62.3602 19.2017 62.3326C17.5157 62.305 16.4954 61.0867 16.4926 59.0497C16.4844 55.2845 16.5091 51.5193 16.4651 47.7541C16.4596 47.3103 16.8859 46.4227 16.025 46.4585C15.2934 46.4889 15.629 47.3461 15.6235 47.823C15.5932 51.5882 15.6015 55.3534 15.607 59.1186C15.607 60.4665 15.1779 61.5553 13.8632 62.1204C12.026 62.9087 10.1227 61.6242 10.0952 59.4852C10.0429 55.4912 10.0457 51.4945 10.0952 47.5005C10.1089 46.4282 9.92467 45.9238 8.70075 45.6868C3.92057 44.7634 3.94807 44.7055 4.86395 39.9921C6.17589 33.2472 7.46582 26.4968 8.80251 19.5534L8.81351 19.5479Z" fill="#F48014"/>
<path d="M42.693 25.7166C42.407 25.3059 42.1787 24.8318 41.8184 24.5011C41.073 23.8175 40.2204 23.7844 39.4806 24.5011C38.749 25.2122 38.7435 26.0639 39.3541 26.8578C39.8299 27.4724 40.3414 28.0788 40.9273 28.5833C41.8899 29.4157 42.2475 30.3391 41.8707 31.607C41.5241 32.7702 41.9147 33.3959 43.2844 33.2416C44.28 33.1285 45.3004 33.1699 46.307 33.2305C47.2834 33.2884 47.2807 32.7151 47.2807 32.0122C47.2807 31.3424 47.2367 30.7608 46.3538 30.9262C42.5968 31.6291 41.5159 28.2856 39.5218 26.3589C39.0543 25.9068 39.266 25.2039 39.7804 24.7657C40.4019 24.2392 41.0785 24.2998 41.6314 24.8594C42.4702 25.7056 43.2789 26.5876 44.0462 27.4972C44.5358 28.0761 45.0886 28.3076 45.8395 28.2718C46.8461 28.2222 47.8555 28.2525 48.8649 28.2635C50.8782 28.2828 51.3018 28.9223 50.5729 30.8104C50.6169 30.8242 50.6582 30.849 50.7049 30.8518C53.4241 31.0245 55.0441 29.7648 55.5649 27.0728C56.1039 24.3274 56.6843 21.5903 57.2206 18.8449C57.3306 18.2826 57.7569 17.6955 56.9868 17.1525C56.709 16.9568 56.8685 16.3449 57.4819 16.3421C60.323 16.3421 63.1642 16.3173 66.0053 16.3669C66.6792 16.378 66.7479 17.1057 66.3051 17.2821C65.4277 17.6294 65.7715 18.2661 65.7715 18.765C65.7495 28.4565 65.7275 38.1479 65.7853 47.8394C65.7936 49.1266 65.4278 49.4409 64.1956 49.3995C61.4479 49.3086 58.6975 49.3747 55.9472 49.3664C55.3916 49.3664 54.7095 49.5759 54.7095 48.5836C54.7095 48.0406 54.1842 48.195 53.8514 48.1784C53.304 48.1481 52.7512 48.1674 52.2011 48.1536C51.6951 48.1398 51.6538 47.7843 51.651 47.3874C51.6455 46.9822 51.8353 46.8002 52.2259 46.8002C52.2726 46.8002 52.3166 46.8002 52.3634 46.7947C53.1225 46.701 54.2117 47.1531 54.5692 46.5467C54.957 45.8879 54.737 44.857 54.7425 43.9915C54.7562 41.5107 54.704 39.03 54.77 36.552C54.7947 35.6093 54.4619 35.3557 53.5928 35.4026C52.5422 35.4577 51.4833 35.4467 50.4326 35.4081C49.5773 35.3778 49.3655 35.6038 49.7973 36.4142C50.9635 38.5972 52.0856 40.8051 53.2105 43.0102C53.9476 44.4573 53.7001 45.6563 52.5779 46.2352C51.4613 46.8085 50.3061 46.3179 49.5718 44.9149C48.4441 42.7621 47.2862 40.6232 46.2548 38.4236C45.8285 37.5167 45.2784 37.2659 44.346 37.299C42.561 37.3624 40.7705 37.3541 38.9855 37.3017C36.5239 37.2328 35.4182 36.1192 35.2175 33.6771C34.9782 30.7884 35.3522 28.0044 36.4771 25.3225C37.019 24.0325 37.8551 23.0622 39.1863 22.5661C41.5434 21.6868 43.1496 22.872 43.0781 25.4382L42.6985 25.7194L42.693 25.7166Z" fill="#F48014"/>
<path d="M10.1407 5.95932C10.1297 2.63787 12.7508 -0.00275423 16.0512 2.15595e-06C19.3407 0.00551494 22.0113 2.69024 21.9838 5.96483C21.9591 9.18705 19.3242 11.8332 16.1145 11.8663C12.8223 11.8993 10.1517 9.26147 10.1407 5.95932Z" fill="#F48014"/>
<path d="M47.9745 17.4346C47.991 19.6507 46.1813 21.4893 43.9837 21.4865C41.7971 21.4865 39.9599 19.6204 39.9846 17.4291C40.0066 15.246 41.7421 13.5095 43.9204 13.4847C46.184 13.4571 47.9553 15.1854 47.9745 17.4346Z" fill="#F48014"/>
<path d="M35.6524 44.3642C35.4406 42.9364 35.977 41.1696 35.2316 39.4386C34.8851 38.631 35.1601 37.9308 36.4198 37.9942C38.6999 38.11 40.9937 38.0879 43.2765 38.0025C44.3822 37.9612 44.6242 38.5538 44.3519 39.3228C43.6093 41.4232 44.1099 43.5649 43.9724 45.6818C43.9091 46.641 43.9421 47.6058 43.9669 48.5677C43.9834 49.1466 43.7826 49.3836 43.1775 49.3781C42.5257 49.3699 42.5862 48.9481 42.5862 48.5402C42.5834 46.0649 42.5477 43.5897 42.6027 41.1145C42.6219 40.2104 42.3441 39.9072 41.442 39.9623C40.3033 40.034 39.1537 40.0229 38.015 39.965C37.2174 39.9237 37.0001 40.2352 37.0111 40.9932C37.0469 43.3747 37.0386 45.759 37.0111 48.1433C37.0056 48.6146 37.3082 49.3285 36.3785 49.3643C35.3279 49.4057 35.6827 48.6091 35.6634 48.1047C35.6194 46.9608 35.6497 45.8141 35.6497 44.3642H35.6524Z" fill="#F48014"/>
<path d="M47.2876 50.7832C40.2356 50.7832 33.1836 50.7832 26.1344 50.7832C25.8126 50.7832 25.4935 50.7942 25.1717 50.7777C24.8692 50.7612 24.4731 50.8439 24.4539 50.367C24.4319 49.7771 24.9022 49.9232 25.2377 49.8929C25.4193 49.8764 25.6035 49.8902 25.7878 49.8902C40.2109 49.8902 54.6339 49.8902 69.0569 49.8902C69.2412 49.8902 69.4255 49.8764 69.607 49.8957C69.9398 49.9287 70.4266 49.7689 70.3854 50.3698C70.3469 50.9403 69.8656 50.7501 69.541 50.7805C69.2247 50.8108 68.9002 50.7887 68.5811 50.7887C61.4851 50.7887 54.3864 50.7887 47.2904 50.7887L47.2876 50.7832Z" fill="#F48014"/>
<path d="M63.6752 8.11145C63.6752 8.95767 63.6917 9.50894 63.6697 10.0575C63.6477 10.5894 63.4359 11.0387 62.9601 11.3144C62.3687 11.6562 61.6976 11.8739 61.2548 11.1986C60.7818 10.4764 61.3208 9.92792 61.9204 9.67984C62.6163 9.39042 63.0316 9.11754 62.9656 8.24927C62.9023 7.38101 62.6025 6.78563 61.8462 6.36115C61.1888 5.99179 60.8148 6.01384 60.8175 6.88211C60.8175 7.43063 60.8093 7.9819 60.812 8.53043C60.8175 9.26914 60.438 9.72394 59.7751 9.98029C59.2636 10.1787 58.7355 10.2091 58.4192 9.71843C58.0534 9.15061 58.3202 8.46979 58.8427 8.33472C60.3912 7.93505 60.0447 6.77185 60.0612 5.73269C60.0887 4.13123 60.1519 4.13398 61.5601 4.79001C63.1389 5.52596 64.195 6.47967 63.6779 8.10594L63.6752 8.11145Z" fill="#F48014"/>
<path d="M52.7249 13.8072C52.1253 13.7906 51.5587 13.5922 51.5257 12.9389C51.49 12.225 52.0648 11.8474 52.7001 11.8722C53.484 11.9025 53.9213 11.7123 54.2074 10.9102C54.5044 10.0723 54.4246 9.41901 53.8746 8.74921C53.4015 8.17312 53.0412 8.0353 52.7414 8.876C52.5571 9.39145 52.3426 9.89862 52.1281 10.403C51.8173 11.1335 51.2314 11.4036 50.4723 11.3457C49.9828 11.3071 49.5509 11.1335 49.4602 10.596C49.3584 9.98683 49.7957 9.46587 50.2605 9.50997C52.0125 9.6726 52.1583 8.33575 52.5516 7.23044C52.8982 6.25468 53.2447 6.06173 53.9928 6.96582C55.5825 8.88978 55.6101 11.478 53.9571 13.3C53.6298 13.6611 53.2145 13.821 52.7304 13.8072H52.7249Z" fill="#F48014"/>
</svg>
