<svg width="24" height="24" viewBox="0 0 24 24" fill="none" xmlns="http://www.w3.org/2000/svg">
<path d="M19.8284 7.99965V8.51965C19.8377 10.0298 19.5471 11.5268 18.9735 12.9238C18.3999 14.3208 17.5546 15.5901 16.4867 16.658C15.4189 17.7258 14.1496 18.5711 12.7526 19.1447C11.3556 19.7183 9.85861 20.0089 8.34844 19.9996C6.15058 20.006 3.99764 19.3775 2.14844 18.1896H3.14844C4.9619 18.1897 6.72278 17.5804 8.14844 16.4596C7.30337 16.4521 6.48242 16.1771 5.80333 15.674C5.12425 15.171 4.62193 14.4658 4.36844 13.6596C4.62308 13.7003 4.88058 13.7203 5.13844 13.7196C5.49558 13.7171 5.85125 13.6735 6.19844 13.5896C5.29495 13.4052 4.48292 12.9143 3.89979 12.2C3.31666 11.4856 2.99825 10.5918 2.99844 9.66965C3.55752 9.97805 4.1805 10.1526 4.81844 10.1796C4.25556 9.80731 3.79437 9.30052 3.4766 8.70513C3.15882 8.10974 2.99448 7.44452 2.99844 6.76965C2.99968 6.06713 3.18593 5.37733 3.53844 4.76965C4.55017 6.01729 5.81267 7.03853 7.24419 7.76721C8.67571 8.49589 10.2443 8.91576 11.8484 8.99965C11.785 8.69701 11.7515 8.38885 11.7484 8.07965C11.7224 7.25652 11.951 6.44542 12.4032 5.75709C12.8553 5.06877 13.5089 4.53677 14.2746 4.23375C15.0404 3.93073 15.881 3.87145 16.6817 4.06401C17.4824 4.25657 18.2042 4.69158 18.7484 5.30965C19.6535 5.12785 20.5198 4.78944 21.3084 4.30965C21.0073 5.24281 20.3738 6.03283 19.5284 6.52965C20.3321 6.44279 21.1179 6.23372 21.8584 5.90965C21.3101 6.71061 20.6345 7.41657 19.8584 7.99965H19.8284Z" fill="#495E57"/>
</svg>
