<svg width="21" height="18" viewBox="0 0 21 18" fill="none" xmlns="http://www.w3.org/2000/svg">
<path d="M21 1.32052C20.8522 2.05033 20.6715 2.95731 20.4835 3.86261C19.5908 8.15878 18.6965 12.4549 17.8022 16.7503C17.7792 16.86 17.7546 16.9696 17.7234 17.0768C17.4565 17.9964 16.8135 18.2512 16.021 17.7408C15.755 17.5695 15.5094 17.3645 15.2557 17.1738C13.9869 16.2196 12.714 15.2704 11.4527 14.3044C11.2441 14.1449 11.1258 14.1559 10.9452 14.3389C10.2627 15.0291 9.56389 15.7024 8.87161 16.3816C8.78292 16.4685 8.6967 16.5604 8.59897 16.6372C8.41092 16.7849 8.1818 16.9477 7.965 16.8313C7.77038 16.7266 7.92066 16.4718 7.93215 16.2896C8.01345 14.9295 8.11528 13.5703 8.19165 12.2094C8.20644 11.9428 8.31237 11.7724 8.4955 11.6036C11.2884 9.03455 14.0789 6.46377 16.8619 3.88371C17.0352 3.72256 17.4417 3.55888 17.252 3.30323C17.059 3.04253 16.7256 3.30914 16.4875 3.46185C12.9514 5.73143 9.41525 8.00101 5.88653 10.2824C5.62046 10.4545 5.39873 10.4933 5.09571 10.3929C3.69309 9.92551 2.27979 9.49015 0.873069 9.03371C0.500242 8.91221 0.0247641 8.82447 0.000949097 8.33343C-0.0236871 7.83142 0.436188 7.6458 0.810658 7.49562C2.84561 6.67723 4.88794 5.87992 6.92864 5.07755C11.0741 3.44666 15.2195 1.81662 19.365 0.18826C19.53 0.123295 19.6992 0.0600164 19.8717 0.0245806C20.5524 -0.114631 21.009 0.340128 20.9992 1.32136L21 1.32052Z" fill="white"/>
</svg>
